{"glyphs":{"0":{"ha":818,"x_min":0,"x_max":0,"o":"m 92 665 b 409 972 92 859 242 972 b 726 665 577 972 726 859 l 726 290 b 409 -22 726 97 578 -22 b 92 290 240 -22 92 97 m 641 665 b 409 898 641 815 532 898 b 178 665 287 898 178 815 l 178 290 b 409 52 178 141 286 52 b 641 290 533 52 641 141 "},"1":{"ha":444,"x_min":0,"x_max":0,"o":"m 230 0 l 230 868 l 27 837 l 14 911 l 257 949 l 316 949 l 316 0 "},"2":{"ha":717,"x_min":0,"x_max":0,"o":"m 62 910 b 353 972 134 941 260 972 b 635 696 546 972 635 860 b 535 499 635 614 603 546 b 193 288 438 430 262 393 b 146 77 156 232 148 188 l 637 77 l 637 0 l 56 0 b 119 331 56 184 63 246 b 476 557 203 457 380 491 b 547 696 523 590 547 637 b 353 895 547 822 489 895 b 86 834 272 895 159 865 "},"3":{"ha":746,"x_min":0,"x_max":0,"o":"m 46 917 b 329 972 138 951 236 972 b 634 709 546 972 634 886 b 531 495 634 604 602 533 b 653 252 621 453 653 356 b 331 -22 653 20 514 -22 b 40 27 231 -22 155 -8 l 61 102 b 331 55 175 68 242 55 b 565 252 469 55 565 84 b 405 454 565 360 523 454 l 120 454 l 120 531 l 409 531 b 546 709 502 531 546 599 b 329 895 546 837 484 895 b 59 838 236 895 139 873 "},"4":{"ha":790,"x_min":0,"x_max":0,"o":"m 147 259 l 500 259 l 500 485 l 511 587 l 588 587 l 588 259 l 732 259 l 732 181 l 588 181 l 588 0 l 500 0 l 500 181 l 47 181 l 47 236 l 302 955 l 385 928 "},"5":{"ha":711,"x_min":0,"x_max":0,"o":"m 207 875 l 194 582 b 360 591 271 588 305 591 b 647 284 540 591 647 516 b 323 -22 647 1 494 -22 b 65 21 268 -22 196 -22 l 87 94 b 323 52 210 52 272 52 b 561 283 455 52 561 68 b 354 515 561 462 483 515 b 107 506 273 516 218 513 l 124 949 l 598 949 l 598 875 "},"6":{"ha":790,"x_min":0,"x_max":0,"o":"m 92 627 b 433 972 92 842 225 972 b 678 913 523 972 626 935 l 647 842 b 433 897 591 867 506 897 b 178 627 274 897 178 795 l 178 573 b 438 614 269 596 357 614 b 726 376 600 614 726 540 l 726 259 b 421 -22 726 30 558 -22 b 92 259 221 -22 92 88 m 641 376 b 438 540 641 492 555 540 b 178 502 350 540 267 522 l 178 259 b 421 52 178 130 272 52 b 641 259 523 52 641 89 "},"7":{"ha":701,"x_min":0,"x_max":0,"o":"m 651 888 b 294 142 474 743 294 489 l 294 0 l 208 0 l 208 142 b 521 874 208 471 359 717 l 38 874 l 38 949 l 651 949 "},"8":{"ha":832,"x_min":0,"x_max":0,"o":"m 92 310 b 216 500 92 401 139 473 b 102 709 145 526 102 589 b 416 972 102 905 248 972 b 731 709 584 972 731 905 b 617 500 731 589 687 526 b 740 310 692 473 740 401 l 740 228 b 416 -22 740 54 591 -22 b 92 228 241 -22 92 54 m 495 541 b 642 709 578 541 642 584 b 416 895 642 849 541 895 b 191 709 292 895 191 849 b 338 541 191 584 255 541 m 334 463 b 181 310 249 463 181 399 l 181 228 b 416 56 181 106 285 56 b 651 228 548 56 651 106 l 651 310 b 499 463 651 398 584 463 "},"9":{"ha":801,"x_min":0,"x_max":0,"o":"m 75 691 b 380 972 75 920 243 972 b 709 691 580 972 709 862 l 709 324 b 369 -22 709 109 576 -22 b 123 38 278 -22 175 15 l 154 108 b 369 53 210 83 292 53 b 623 323 527 53 623 154 l 623 377 b 363 336 532 355 444 336 b 75 574 201 336 75 410 m 623 691 b 380 898 623 820 530 898 b 160 691 278 898 160 861 l 160 574 b 363 410 160 458 246 410 b 623 449 451 410 534 428 "},"A":{"ha":900,"x_min":0,"x_max":0,"o":"m 747 0 l 663 229 l 236 229 l 154 0 l 61 0 l 411 972 l 489 972 l 840 0 m 642 301 l 449 845 l 257 301 "},"Á":{"ha":900,"x_min":0,"x_max":0,"o":"m 352 1190 l 454 1319 l 550 1319 l 420 1190 m 747 0 l 663 229 l 236 229 l 154 0 l 61 0 l 411 972 l 489 972 l 840 0 m 642 301 l 449 845 l 257 301 "},"Ă":{"ha":900,"x_min":0,"x_max":0,"o":"m 637 1319 b 465 1149 637 1214 558 1149 l 437 1149 b 264 1319 343 1149 264 1214 l 329 1319 b 437 1209 329 1255 381 1209 l 465 1209 b 573 1319 520 1209 573 1255 m 747 0 l 663 229 l 236 229 l 154 0 l 61 0 l 411 972 l 489 972 l 840 0 m 642 301 l 449 845 l 257 301 "},"Ǎ":{"ha":900,"x_min":0,"x_max":0,"o":"m 420 1190 l 317 1319 l 382 1319 l 451 1250 l 520 1319 l 585 1319 l 481 1190 m 747 0 l 663 229 l 236 229 l 154 0 l 61 0 l 411 972 l 489 972 l 840 0 m 642 301 l 449 845 l 257 301 "},"Â":{"ha":900,"x_min":0,"x_max":0,"o":"m 520 1190 l 451 1259 l 382 1190 l 317 1190 l 420 1319 l 481 1319 l 585 1190 m 747 0 l 663 229 l 236 229 l 154 0 l 61 0 l 411 972 l 489 972 l 840 0 m 642 301 l 450 845 l 257 301 "},"Ậ":{"ha":900,"x_min":0,"x_max":0,"o":"m 520 1190 l 451 1259 l 382 1190 l 317 1190 l 420 1319 l 481 1319 l 585 1190 m 747 0 l 663 229 l 236 229 l 154 0 l 61 0 l 411 972 l 489 972 l 840 0 m 642 301 l 450 845 l 257 301 m 410 -236 l 410 -161 l 485 -161 l 485 -236 "},"Ä":{"ha":900,"x_min":0,"x_max":0,"o":"m 325 1210 l 325 1285 l 400 1285 l 400 1210 m 502 1210 l 502 1285 l 576 1285 l 576 1210 m 747 0 l 663 229 l 236 229 l 154 0 l 61 0 l 411 972 l 489 972 l 840 0 m 642 301 l 449 845 l 257 301 "},"Ǟ":{"ha":900,"x_min":0,"x_max":0,"o":"m 247 1253 l 247 1327 l 654 1327 l 654 1253 m 325 1103 l 325 1177 l 400 1177 l 400 1103 m 502 1103 l 502 1177 l 576 1177 l 576 1103 m 747 0 l 663 229 l 236 229 l 154 0 l 61 0 l 411 972 l 489 972 l 840 0 m 642 301 l 450 845 l 257 301 "},"À":{"ha":900,"x_min":0,"x_max":0,"o":"m 482 1190 l 351 1319 l 447 1319 l 550 1190 m 747 0 l 663 229 l 236 229 l 154 0 l 61 0 l 411 972 l 489 972 l 840 0 m 642 301 l 449 845 l 257 301 "},"Ā":{"ha":900,"x_min":0,"x_max":0,"o":"m 247 1211 l 247 1285 l 654 1285 l 654 1211 m 747 0 l 663 229 l 236 229 l 154 0 l 61 0 l 411 972 l 489 972 l 840 0 m 642 301 l 449 845 l 257 301 "},"Ą":{"ha":900,"x_min":0,"x_max":0,"o":"m 781 0 b 698 -51 711 0 698 -17 b 894 -190 698 -153 732 -190 l 894 -240 b 646 -60 688 -240 646 -190 b 737 28 646 -4 664 22 l 663 229 l 236 229 l 154 0 l 61 0 l 411 972 l 489 972 l 840 0 m 642 301 l 449 845 l 257 301 "},"Å":{"ha":900,"x_min":0,"x_max":0,"o":"m 450 1340 b 588 1202 527 1340 588 1278 b 450 1066 588 1127 527 1066 b 314 1202 374 1066 314 1127 b 450 1340 314 1278 374 1340 m 450 1283 b 371 1202 407 1283 371 1247 b 450 1124 371 1159 407 1124 b 530 1202 495 1124 530 1159 b 450 1283 530 1247 495 1283 m 747 0 l 663 229 l 236 229 l 154 0 l 61 0 l 411 972 l 489 972 l 840 0 m 642 301 l 449 845 l 257 301 "},"Ã":{"ha":900,"x_min":0,"x_max":0,"o":"m 265 1203 b 369 1320 286 1262 311 1320 b 422 1304 388 1320 407 1313 l 488 1260 b 527 1248 500 1252 514 1248 b 577 1312 555 1248 572 1289 l 636 1299 b 540 1181 628 1260 597 1181 b 483 1198 521 1181 500 1188 l 415 1242 b 379 1254 406 1248 392 1254 b 323 1183 353 1254 338 1223 m 747 0 l 663 229 l 236 229 l 154 0 l 61 0 l 411 972 l 489 972 l 840 0 m 642 301 l 450 845 l 257 301 "},"Æ":{"ha":1108,"x_min":0,"x_max":0,"o":"m 549 895 l 549 542 l 1009 542 l 1009 464 l 549 464 l 549 78 l 1069 78 l 1069 0 l 460 0 l 460 229 l 247 229 l 165 0 l 72 0 l 422 972 l 1055 972 l 1055 895 m 460 301 l 460 845 l 267 301 "},"B":{"ha":890,"x_min":0,"x_max":0,"o":"m 521 972 b 784 729 672 972 784 905 b 664 525 784 617 729 553 b 815 275 753 493 815 411 b 524 0 815 47 674 0 l 129 0 l 129 972 m 218 560 l 549 560 b 694 729 607 560 694 604 b 520 895 694 851 623 895 l 218 895 m 218 78 l 522 78 b 726 275 630 78 726 109 b 545 483 726 420 643 483 l 218 483 "},"Ḅ":{"ha":890,"x_min":0,"x_max":0,"o":"m 521 972 b 784 729 672 972 784 905 b 664 525 784 617 729 553 b 815 275 753 493 815 411 b 524 0 815 47 674 0 l 129 0 l 129 972 m 218 560 l 549 560 b 694 729 607 560 694 604 b 520 895 694 851 623 895 l 218 895 m 218 78 l 522 78 b 726 275 630 78 726 109 b 545 483 726 420 643 483 l 218 483 m 398 -236 l 398 -161 l 473 -161 l 473 -236 "},"C":{"ha":785,"x_min":0,"x_max":0,"o":"m 723 37 b 454 -22 615 -22 466 -22 b 91 488 120 -22 91 221 b 454 995 91 754 120 995 b 723 936 466 995 615 995 l 692 861 b 454 917 590 917 465 917 b 180 487 201 917 180 716 b 454 55 180 259 201 55 b 692 111 465 55 590 55 "},"Ć":{"ha":785,"x_min":0,"x_max":0,"o":"m 281 1186 l 383 1316 l 479 1316 l 349 1186 m 723 37 b 454 -22 615 -22 466 -22 b 91 488 120 -22 91 221 b 454 995 91 754 120 995 b 723 936 466 995 615 995 l 692 861 b 454 917 590 917 465 917 b 180 487 201 917 180 716 b 454 55 180 259 201 55 b 692 111 465 55 590 55 "},"Č":{"ha":785,"x_min":0,"x_max":0,"o":"m 407 1186 l 304 1316 l 368 1316 l 437 1247 l 506 1316 l 571 1316 l 468 1186 m 723 37 b 454 -22 615 -22 466 -22 b 91 488 120 -22 91 221 b 454 995 91 754 120 995 b 723 936 466 995 615 995 l 692 861 b 454 917 590 917 465 917 b 180 487 201 917 180 716 b 454 55 180 259 201 55 b 692 111 465 55 590 55 "},"Ç":{"ha":753,"x_min":0,"x_max":0,"o":"m 338 -13 b 79 487 102 35 79 252 b 443 995 79 754 109 995 b 711 935 454 995 604 995 l 680 861 b 443 916 579 916 453 916 b 169 487 190 916 169 715 b 443 55 169 259 190 55 b 680 111 453 55 579 55 l 711 36 b 462 -21 620 -12 486 -19 b 386 -18 433 -22 407 -21 l 386 -61 l 418 -61 b 524 -156 503 -61 524 -110 b 267 -276 524 -271 467 -276 l 267 -231 b 465 -156 428 -231 465 -229 b 394 -104 465 -129 452 -104 l 338 -104 "},"Ċ":{"ha":785,"x_min":0,"x_max":0,"o":"m 408 1207 l 408 1281 l 483 1281 l 483 1207 m 723 37 b 454 -22 615 -22 466 -22 b 91 488 120 -22 91 221 b 454 995 91 754 120 995 b 723 936 466 995 615 995 l 692 861 b 454 917 590 917 465 917 b 180 487 201 917 180 716 b 454 55 180 259 201 55 b 692 111 465 55 590 55 "},"D":{"ha":914,"x_min":0,"x_max":0,"o":"m 465 972 b 824 653 655 972 824 854 l 824 324 b 465 0 824 124 657 0 l 129 0 l 129 972 m 218 78 l 465 78 b 735 324 610 78 735 169 l 735 653 b 465 895 735 808 609 895 l 218 895 "},"Ð":{"ha":926,"x_min":0,"x_max":0,"o":"m 476 972 b 835 653 666 972 835 854 l 835 324 b 476 0 835 124 668 0 l 140 0 l 140 462 l 30 462 l 30 537 l 140 537 l 140 972 m 229 537 l 411 537 l 411 462 l 229 462 l 229 78 l 476 78 b 746 324 621 78 746 169 l 746 653 b 476 895 746 808 620 895 l 229 895 "},"Ď":{"ha":914,"x_min":0,"x_max":0,"o":"m 440 1186 l 337 1316 l 401 1316 l 470 1247 l 539 1316 l 604 1316 l 501 1186 m 465 972 b 824 653 655 972 824 854 l 824 324 b 465 0 824 124 657 0 l 129 0 l 129 972 m 218 78 l 465 78 b 735 324 610 78 735 169 l 735 653 b 465 895 735 808 609 895 l 218 895 "},"Ḓ":{"ha":914,"x_min":0,"x_max":0,"o":"m 465 972 b 824 653 655 972 824 854 l 824 324 b 465 0 824 124 657 0 l 129 0 l 129 972 m 218 78 l 465 78 b 735 324 610 78 735 169 l 735 653 b 465 895 735 808 609 895 l 218 895 m 506 -236 l 437 -167 l 368 -236 l 304 -236 l 406 -106 l 468 -106 l 571 -236 "},"Đ":{"ha":926,"x_min":0,"x_max":0,"o":"m 476 972 b 835 653 666 972 835 854 l 835 324 b 476 0 835 124 668 0 l 140 0 l 140 462 l 30 462 l 30 537 l 140 537 l 140 972 m 229 537 l 411 537 l 411 462 l 229 462 l 229 78 l 476 78 b 746 324 621 78 746 169 l 746 653 b 476 895 746 808 620 895 l 229 895 "},"Ḍ":{"ha":914,"x_min":0,"x_max":0,"o":"m 465 972 b 824 653 655 972 824 854 l 824 324 b 465 0 824 124 657 0 l 129 0 l 129 972 m 218 78 l 465 78 b 735 324 610 78 735 169 l 735 653 b 465 895 735 808 609 895 l 218 895 m 402 -236 l 402 -161 l 477 -161 l 477 -236 "},"Ḏ":{"ha":914,"x_min":0,"x_max":0,"o":"m 465 972 b 824 653 655 972 824 854 l 824 324 b 465 0 824 124 657 0 l 129 0 l 129 972 m 218 78 l 465 78 b 735 324 610 78 735 169 l 735 653 b 465 895 735 808 609 895 l 218 895 m 236 -236 l 236 -162 l 643 -162 l 643 -236 "},"E":{"ha":803,"x_min":0,"x_max":0,"o":"m 218 895 l 218 542 l 678 542 l 678 464 l 218 464 l 218 78 l 738 78 l 738 0 l 129 0 l 129 972 l 724 972 l 724 895 "},"É":{"ha":803,"x_min":0,"x_max":0,"o":"m 312 1190 l 415 1319 l 511 1319 l 381 1190 m 218 895 l 218 542 l 678 542 l 678 464 l 218 464 l 218 78 l 738 78 l 738 0 l 129 0 l 129 972 l 724 972 l 724 895 "},"Ě":{"ha":803,"x_min":0,"x_max":0,"o":"m 381 1190 l 278 1319 l 343 1319 l 412 1250 l 480 1319 l 545 1319 l 442 1190 m 218 895 l 218 542 l 678 542 l 678 464 l 218 464 l 218 78 l 738 78 l 738 0 l 129 0 l 129 972 l 724 972 l 724 895 "},"Ȩ":{"ha":803,"x_min":0,"x_max":0,"o":"m 218 895 l 218 542 l 678 542 l 678 464 l 218 464 l 218 78 l 738 78 l 738 0 l 446 0 l 446 -56 l 479 -56 b 585 -150 564 -56 585 -104 b 327 -271 585 -265 527 -271 l 327 -225 b 526 -150 488 -225 526 -224 b 455 -99 526 -124 513 -99 l 398 -99 l 398 0 l 129 0 l 129 972 l 724 972 l 724 895 "},"Ê":{"ha":803,"x_min":0,"x_max":0,"o":"m 480 1190 l 412 1259 l 343 1190 l 278 1190 l 381 1319 l 442 1319 l 545 1190 m 218 895 l 218 542 l 678 542 l 678 464 l 218 464 l 218 78 l 738 78 l 738 0 l 129 0 l 129 972 l 724 972 l 724 895 "},"Ệ":{"ha":803,"x_min":0,"x_max":0,"o":"m 480 1190 l 412 1259 l 343 1190 l 278 1190 l 381 1319 l 442 1319 l 545 1190 m 218 895 l 218 542 l 678 542 l 678 464 l 218 464 l 218 78 l 738 78 l 738 0 l 129 0 l 129 972 l 724 972 l 724 895 m 419 -232 l 419 -158 l 494 -158 l 494 -232 "},"Ë":{"ha":803,"x_min":0,"x_max":0,"o":"m 286 1210 l 286 1285 l 361 1285 l 361 1210 m 463 1210 l 463 1285 l 537 1285 l 537 1210 m 218 895 l 218 542 l 678 542 l 678 464 l 218 464 l 218 78 l 738 78 l 738 0 l 129 0 l 129 972 l 724 972 l 724 895 "},"Ė":{"ha":803,"x_min":0,"x_max":0,"o":"m 374 1210 l 374 1284 l 449 1284 l 449 1210 m 218 895 l 218 542 l 678 542 l 678 464 l 218 464 l 218 78 l 738 78 l 738 0 l 129 0 l 129 972 l 724 972 l 724 895 "},"Ẹ":{"ha":803,"x_min":0,"x_max":0,"o":"m 218 895 l 218 542 l 678 542 l 678 464 l 218 464 l 218 78 l 738 78 l 738 0 l 129 0 l 129 972 l 724 972 l 724 895 m 419 -232 l 419 -158 l 494 -158 l 494 -232 "},"È":{"ha":803,"x_min":0,"x_max":0,"o":"m 443 1190 l 312 1319 l 408 1319 l 511 1190 m 218 895 l 218 542 l 678 542 l 678 464 l 218 464 l 218 78 l 738 78 l 738 0 l 129 0 l 129 972 l 724 972 l 724 895 "},"Ē":{"ha":803,"x_min":0,"x_max":0,"o":"m 208 1211 l 208 1285 l 615 1285 l 615 1211 m 218 895 l 218 542 l 678 542 l 678 464 l 218 464 l 218 78 l 738 78 l 738 0 l 129 0 l 129 972 l 724 972 l 724 895 "},"Ę":{"ha":803,"x_min":0,"x_max":0,"o":"m 218 895 l 218 542 l 678 542 l 678 464 l 218 464 l 218 78 l 738 78 l 738 0 l 572 0 b 489 -51 502 0 489 -17 b 685 -190 489 -153 523 -190 l 685 -240 b 437 -60 479 -240 437 -190 b 452 0 437 -33 441 -14 l 129 0 l 129 972 l 724 972 l 724 895 "},"Ẽ":{"ha":803,"x_min":0,"x_max":0,"o":"m 226 1203 b 330 1320 247 1262 272 1320 b 383 1304 349 1320 368 1313 l 449 1260 b 487 1248 461 1252 475 1248 b 538 1312 516 1248 533 1289 l 597 1299 b 501 1181 589 1260 558 1181 b 444 1198 482 1181 461 1188 l 376 1242 b 340 1254 367 1248 353 1254 b 284 1183 313 1254 299 1223 m 218 895 l 218 542 l 678 542 l 678 464 l 218 464 l 218 78 l 738 78 l 738 0 l 129 0 l 129 972 l 724 972 l 724 895 "},"F":{"ha":763,"x_min":0,"x_max":0,"o":"m 218 895 l 218 542 l 652 542 l 652 464 l 218 464 l 218 0 l 129 0 l 129 972 l 698 972 l 698 895 "},"G":{"ha":893,"x_min":0,"x_max":0,"o":"m 91 625 b 474 995 91 796 161 995 b 780 929 558 995 698 976 l 740 860 b 474 918 668 903 551 918 b 179 625 232 918 179 763 l 179 354 b 457 58 179 173 283 58 b 688 84 465 58 622 60 l 688 448 l 498 448 l 498 525 l 777 525 l 777 36 b 457 -19 702 -15 466 -19 b 91 353 228 -19 91 129 "},"Ğ":{"ha":893,"x_min":0,"x_max":0,"o":"m 615 1316 b 442 1145 615 1211 535 1145 l 415 1145 b 242 1316 321 1145 242 1211 l 306 1316 b 415 1205 306 1251 358 1205 l 442 1205 b 550 1316 498 1205 550 1251 m 91 625 b 474 995 91 796 161 995 b 780 929 558 995 698 976 l 740 860 b 474 918 668 903 551 918 b 180 625 232 918 180 763 l 180 354 b 457 58 180 173 283 58 b 688 84 465 58 622 60 l 688 448 l 498 448 l 498 525 l 777 525 l 777 36 b 457 -19 702 -15 466 -19 b 91 353 228 -19 91 129 "},"Ǧ":{"ha":893,"x_min":0,"x_max":0,"o":"m 397 1186 l 295 1316 l 359 1316 l 428 1247 l 497 1316 l 562 1316 l 459 1186 m 91 625 b 474 995 91 796 161 995 b 780 929 558 995 698 976 l 740 860 b 474 918 668 903 551 918 b 179 625 232 918 179 763 l 179 354 b 457 58 179 173 283 58 b 688 84 465 58 622 60 l 688 448 l 498 448 l 498 525 l 777 525 l 777 36 b 457 -19 702 -15 466 -19 b 91 353 228 -19 91 129 "},"Ģ":{"ha":893,"x_min":0,"x_max":0,"o":"m 91 625 b 474 995 91 796 161 995 b 780 929 558 995 698 976 l 740 860 b 474 918 668 903 551 918 b 179 625 232 918 179 763 l 179 354 b 457 58 179 173 283 58 b 688 84 465 58 622 60 l 688 448 l 498 448 l 498 525 l 777 525 l 777 36 b 457 -19 702 -15 466 -19 b 91 353 228 -19 91 129 m 475 -209 b 376 -294 475 -262 427 -297 l 376 -241 b 404 -209 392 -238 404 -227 l 404 -113 l 475 -113 "},"Ġ":{"ha":893,"x_min":0,"x_max":0,"o":"m 391 1207 l 391 1281 l 466 1281 l 466 1207 m 91 625 b 474 995 91 796 161 995 b 780 929 558 995 698 976 l 740 860 b 474 918 668 903 551 918 b 179 625 232 918 179 763 l 179 354 b 457 58 179 173 283 58 b 688 84 465 58 622 60 l 688 448 l 498 448 l 498 525 l 777 525 l 777 36 b 457 -19 702 -15 466 -19 b 91 353 228 -19 91 129 "},"H":{"ha":967,"x_min":0,"x_max":0,"o":"m 748 0 l 748 464 l 218 464 l 218 0 l 129 0 l 129 972 l 218 972 l 218 542 l 748 542 l 748 972 l 838 972 l 838 0 "},"Ħ":{"ha":981,"x_min":0,"x_max":0,"o":"m 977 784 l 977 714 l 844 714 l 844 0 l 755 0 l 755 464 l 225 464 l 225 0 l 136 0 l 136 714 l 3 714 l 3 784 l 136 784 l 136 972 l 225 972 l 225 784 l 755 784 l 755 972 l 844 972 l 844 784 m 225 542 l 755 542 l 755 714 l 225 714 "},"Ḥ":{"ha":967,"x_min":0,"x_max":0,"o":"m 748 0 l 748 464 l 218 464 l 218 0 l 129 0 l 129 972 l 218 972 l 218 542 l 748 542 l 748 972 l 838 972 l 838 0 m 451 -236 l 451 -161 l 526 -161 l 526 -236 "},"I":{"ha":347,"x_min":0,"x_max":0,"o":"m 129 0 l 129 972 l 218 972 l 218 0 "},"Ĳ":{"ha":721,"x_min":0,"x_max":0,"o":"m 593 25 b 357 -207 593 -112 429 -179 l 330 -142 b 504 25 390 -117 504 -64 l 504 972 l 593 972 m 129 0 l 129 972 l 218 972 l 218 0 "},"Í":{"ha":347,"x_min":0,"x_max":0,"o":"m 74 1190 l 177 1319 l 273 1319 l 143 1190 m 129 0 l 129 972 l 218 972 l 218 0 "},"Ǐ":{"ha":347,"x_min":0,"x_max":0,"o":"m 143 1190 l 40 1319 l 104 1319 l 173 1250 l 242 1319 l 307 1319 l 204 1190 m 129 0 l 129 972 l 218 972 l 218 0 "},"Î":{"ha":347,"x_min":0,"x_max":0,"o":"m 242 1190 l 173 1259 l 104 1190 l 40 1190 l 143 1319 l 204 1319 l 307 1190 m 129 0 l 129 972 l 218 972 l 218 0 "},"Ï":{"ha":347,"x_min":0,"x_max":0,"o":"m 48 1210 l 48 1285 l 123 1285 l 123 1210 m 224 1210 l 224 1285 l 299 1285 l 299 1210 m 129 0 l 129 972 l 218 972 l 218 0 "},"Ḯ":{"ha":347,"x_min":0,"x_max":0,"o":"m 74 1234 l 177 1363 l 273 1363 l 143 1234 m 224 1042 l 224 1116 l 299 1116 l 299 1042 m 48 1042 l 48 1116 l 123 1116 l 123 1042 m 129 0 l 129 972 l 218 972 l 218 0 "},"İ":{"ha":347,"x_min":0,"x_max":0,"o":"m 136 1210 l 136 1284 l 211 1284 l 211 1210 m 129 0 l 129 972 l 218 972 l 218 0 "},"Ị":{"ha":347,"x_min":0,"x_max":0,"o":"m 128 0 l 128 972 l 217 972 l 217 0 m 135 -236 l 135 -161 l 210 -161 l 210 -236 "},"Ì":{"ha":347,"x_min":0,"x_max":0,"o":"m 205 1190 l 74 1319 l 170 1319 l 273 1190 m 129 0 l 129 972 l 218 972 l 218 0 "},"Ī":{"ha":347,"x_min":0,"x_max":0,"o":"m -31 1211 l -31 1285 l 377 1285 l 377 1211 m 129 0 l 129 972 l 218 972 l 218 0 "},"Į":{"ha":347,"x_min":0,"x_max":0,"o":"m 218 0 b 135 -51 149 0 135 -17 b 331 -190 135 -153 169 -190 l 331 -240 b 83 -60 125 -240 83 -190 b 154 20 83 -12 98 13 l 129 39 l 129 972 l 218 972 "},"Ĩ":{"ha":347,"x_min":0,"x_max":0,"o":"m -12 1203 b 92 1320 9 1262 34 1320 b 145 1304 111 1320 130 1313 l 211 1260 b 249 1248 223 1252 237 1248 b 300 1312 278 1248 295 1289 l 359 1299 b 263 1181 351 1260 320 1181 b 205 1198 244 1181 223 1188 l 137 1242 b 102 1254 129 1248 114 1254 b 46 1183 75 1254 60 1223 m 129 0 l 129 972 l 218 972 l 218 0 "},"J":{"ha":375,"x_min":0,"x_max":0,"o":"m 246 324 b -26 -22 246 85 127 -25 l -26 54 b 157 324 99 54 157 146 l 157 972 l 246 972 "},"K":{"ha":864,"x_min":0,"x_max":0,"o":"m 803 0 l 689 0 l 218 439 l 218 0 l 129 0 l 129 972 l 218 972 l 218 542 l 676 972 l 789 972 l 280 491 "},"Ķ":{"ha":864,"x_min":0,"x_max":0,"o":"m 803 0 l 689 0 l 218 439 l 218 0 l 129 0 l 129 972 l 218 972 l 218 542 l 676 972 l 789 972 l 280 491 m 497 -214 b 398 -299 497 -267 449 -301 l 398 -244 b 426 -214 414 -242 426 -232 l 426 -117 l 497 -117 "},"L":{"ha":758,"x_min":0,"x_max":0,"o":"m 698 78 l 698 0 l 129 0 l 129 972 l 218 972 l 218 78 "},"Ĺ":{"ha":758,"x_min":0,"x_max":0,"o":"m 263 1190 l 366 1319 l 461 1319 l 332 1190 m 698 78 l 698 0 l 129 0 l 129 972 l 218 972 l 218 78 "},"Ľ":{"ha":758,"x_min":0,"x_max":0,"o":"m 571 866 b 452 767 571 804 513 764 l 452 832 b 481 866 469 836 481 847 l 481 972 l 571 972 m 698 78 l 698 0 l 129 0 l 129 972 l 218 972 l 218 78 "},"Ḽ":{"ha":758,"x_min":0,"x_max":0,"o":"m 698 78 l 698 0 l 129 0 l 129 972 l 218 972 l 218 78 m 477 -236 l 408 -167 l 339 -236 l 274 -236 l 377 -106 l 439 -106 l 542 -236 "},"Ļ":{"ha":758,"x_min":0,"x_max":0,"o":"m 698 78 l 698 0 l 129 0 l 129 972 l 218 972 l 218 78 m 409 -214 b 310 -299 409 -267 361 -301 l 310 -244 b 338 -214 326 -242 338 -232 l 338 -117 l 409 -117 "},"Ŀ":{"ha":758,"x_min":0,"x_max":0,"o":"m 698 78 l 698 0 l 129 0 l 129 972 l 218 972 l 218 78 m 489 391 l 489 511 l 579 511 l 579 391 "},"Ḷ":{"ha":758,"x_min":0,"x_max":0,"o":"m 698 78 l 698 0 l 129 0 l 129 972 l 218 972 l 218 78 m 373 -236 l 373 -161 l 448 -161 l 448 -236 "},"Ł":{"ha":790,"x_min":0,"x_max":0,"o":"m 515 649 l 515 552 l 293 395 l 293 78 l 773 78 l 773 0 l 205 0 l 205 333 l 68 236 l 68 337 l 205 433 l 205 972 l 293 972 l 293 494 "},"M":{"ha":1129,"x_min":0,"x_max":0,"o":"m 934 0 l 907 795 l 599 216 l 531 216 l 223 795 l 195 0 l 107 0 l 140 972 l 227 972 l 564 335 l 903 972 l 990 972 l 1023 0 "},"Ḿ":{"ha":1129,"x_min":0,"x_max":0,"o":"m 468 1190 l 570 1319 l 666 1319 l 536 1190 m 934 0 l 907 795 l 599 216 l 531 216 l 223 795 l 195 0 l 107 0 l 140 972 l 227 972 l 564 335 l 903 972 l 990 972 l 1023 0 "},"N":{"ha":924,"x_min":0,"x_max":0,"o":"m 731 0 l 200 806 l 200 0 l 111 0 l 111 972 l 194 972 l 723 166 l 723 972 l 812 972 l 812 0 "},"Ń":{"ha":924,"x_min":0,"x_max":0,"o":"m 363 1186 l 465 1316 l 561 1316 l 431 1186 m 731 0 l 200 806 l 200 0 l 112 0 l 112 972 l 194 972 l 723 166 l 723 972 l 812 972 l 812 0 "},"Ň":{"ha":924,"x_min":0,"x_max":0,"o":"m 431 1186 l 328 1316 l 393 1316 l 462 1247 l 531 1316 l 596 1316 l 492 1186 m 731 0 l 200 806 l 200 0 l 111 0 l 111 972 l 194 972 l 723 166 l 723 972 l 812 972 l 812 0 "},"Ṋ":{"ha":924,"x_min":0,"x_max":0,"o":"m 731 0 l 200 806 l 200 0 l 111 0 l 111 972 l 194 972 l 723 166 l 723 972 l 812 972 l 812 0 m 528 -232 l 459 -162 l 390 -232 l 326 -232 l 428 -103 l 490 -103 l 593 -232 "},"Ņ":{"ha":924,"x_min":0,"x_max":0,"o":"m 731 0 l 200 806 l 200 0 l 111 0 l 111 972 l 194 972 l 723 166 l 723 972 l 812 972 l 812 0 m 509 -210 b 409 -294 509 -262 461 -297 l 409 -242 b 438 -210 425 -239 438 -228 l 438 -114 l 509 -114 "},"Ṅ":{"ha":924,"x_min":0,"x_max":0,"o":"m 424 1207 l 424 1281 l 499 1281 l 499 1207 m 731 0 l 200 806 l 200 0 l 112 0 l 112 972 l 194 972 l 723 166 l 723 972 l 812 972 l 812 0 "},"Ṇ":{"ha":924,"x_min":0,"x_max":0,"o":"m 731 0 l 200 806 l 200 0 l 111 0 l 111 972 l 194 972 l 723 166 l 723 972 l 812 972 l 812 0 m 424 -232 l 424 -158 l 499 -158 l 499 -232 "},"Ŋ":{"ha":924,"x_min":0,"x_max":0,"o":"m 812 -29 b 577 -261 812 -168 648 -233 l 549 -196 b 723 -29 610 -172 723 -118 l 723 13 l 719 18 l 200 806 l 200 0 l 111 0 l 111 972 l 194 972 l 723 166 l 723 972 l 812 972 "},"Ñ":{"ha":924,"x_min":0,"x_max":0,"o":"m 276 1199 b 380 1317 297 1259 322 1317 b 433 1300 400 1317 418 1309 l 499 1257 b 538 1244 511 1249 525 1244 b 588 1308 566 1244 583 1286 l 647 1296 b 551 1178 639 1257 608 1178 b 494 1195 532 1178 511 1185 l 426 1239 b 391 1250 417 1244 403 1250 b 334 1180 364 1250 349 1219 m 731 0 l 200 806 l 200 0 l 112 0 l 112 972 l 194 972 l 723 166 l 723 972 l 812 972 l 812 0 "},"O":{"ha":900,"x_min":0,"x_max":0,"o":"m 91 675 b 450 995 91 877 260 995 b 809 675 641 995 809 876 l 809 302 b 450 -22 809 101 642 -22 b 91 302 258 -22 91 101 m 721 675 b 450 917 721 830 594 917 b 179 675 306 917 179 830 l 179 302 b 450 55 179 147 304 55 b 721 302 595 55 721 147 "},"Ó":{"ha":900,"x_min":0,"x_max":0,"o":"m 351 1186 l 454 1316 l 549 1316 l 419 1186 m 91 675 b 450 995 91 877 260 995 b 809 675 641 995 809 876 l 809 302 b 450 -22 809 101 642 -22 b 91 302 258 -22 91 101 m 721 675 b 450 917 721 830 594 917 b 179 675 306 917 179 830 l 179 302 b 450 55 179 147 304 55 b 721 302 595 55 721 147 "},"Ǒ":{"ha":900,"x_min":0,"x_max":0,"o":"m 419 1186 l 316 1316 l 381 1316 l 450 1247 l 519 1316 l 584 1316 l 481 1186 m 91 675 b 450 995 91 877 260 995 b 809 675 641 995 809 876 l 809 302 b 450 -22 809 101 642 -22 b 91 302 258 -22 91 101 m 721 675 b 450 917 721 830 594 917 b 179 675 306 917 179 830 l 179 302 b 450 55 179 147 304 55 b 721 302 595 55 721 147 "},"Ô":{"ha":900,"x_min":0,"x_max":0,"o":"m 519 1186 l 450 1256 l 381 1186 l 316 1186 l 419 1316 l 481 1316 l 584 1186 m 91 675 b 450 995 91 877 260 995 b 809 675 641 995 809 876 l 809 302 b 450 -22 809 101 642 -22 b 91 302 258 -22 91 101 m 721 675 b 450 917 721 830 594 917 b 179 675 306 917 179 830 l 179 302 b 450 55 179 147 304 55 b 721 302 595 55 721 147 "},"Ộ":{"ha":900,"x_min":0,"x_max":0,"o":"m 519 1186 l 450 1256 l 381 1186 l 316 1186 l 419 1316 l 481 1316 l 584 1186 m 91 675 b 450 995 91 877 260 995 b 809 675 641 995 809 876 l 809 302 b 450 -22 809 101 642 -22 b 91 302 258 -22 91 101 m 721 675 b 450 917 721 830 594 917 b 179 675 306 917 179 830 l 179 302 b 450 55 179 147 304 55 b 721 302 595 55 721 147 m 412 -236 l 412 -161 l 487 -161 l 487 -236 "},"Ȫ":{"ha":900,"x_min":0,"x_max":0,"o":"m 246 1253 l 246 1327 l 654 1327 l 654 1253 m 501 1104 l 501 1178 l 575 1178 l 575 1104 m 325 1104 l 325 1178 l 399 1178 l 399 1104 m 91 675 b 450 995 91 877 260 995 b 809 675 641 995 809 877 l 809 302 b 450 -22 809 101 642 -22 b 91 302 258 -22 91 101 m 721 675 b 450 917 721 830 594 917 b 179 675 306 917 179 830 l 179 302 b 450 55 179 147 304 55 b 721 302 595 55 721 147 "},"Ö":{"ha":900,"x_min":0,"x_max":0,"o":"m 325 1207 l 325 1281 l 399 1281 l 399 1207 m 501 1207 l 501 1281 l 575 1281 l 575 1207 m 91 675 b 450 995 91 876 260 995 b 809 675 641 995 809 876 l 809 302 b 450 -22 809 101 642 -22 b 91 302 258 -22 91 101 m 721 675 b 450 917 721 830 594 917 b 179 675 306 917 179 830 l 179 302 b 450 55 179 147 304 55 b 721 302 595 55 721 147 "},"Ọ":{"ha":900,"x_min":0,"x_max":0,"o":"m 91 675 b 450 995 91 877 260 995 b 809 675 641 995 809 876 l 809 302 b 450 -22 809 101 642 -22 b 91 302 258 -22 91 101 m 721 675 b 450 917 721 830 594 917 b 179 675 306 917 179 830 l 179 302 b 450 55 179 147 304 55 b 721 302 595 55 721 147 m 412 -236 l 412 -161 l 487 -161 l 487 -236 "},"Ò":{"ha":900,"x_min":0,"x_max":0,"o":"m 481 1186 l 351 1316 l 446 1316 l 549 1186 m 91 675 b 450 995 91 877 260 995 b 809 675 641 995 809 876 l 809 302 b 450 -22 809 101 642 -22 b 91 302 258 -22 91 101 m 721 675 b 450 917 721 830 594 917 b 179 675 306 917 179 830 l 179 302 b 450 55 179 147 304 55 b 721 302 595 55 721 147 "},"Ő":{"ha":900,"x_min":0,"x_max":0,"o":"m 256 1186 l 358 1316 l 454 1316 l 324 1186 m 446 1186 l 549 1316 l 644 1316 l 515 1186 m 91 675 b 450 995 91 877 260 995 b 809 675 641 995 809 876 l 809 302 b 450 -22 809 101 642 -22 b 91 302 258 -22 91 101 m 721 675 b 450 917 721 830 594 917 b 179 675 306 917 179 830 l 179 302 b 450 55 179 147 304 55 b 721 302 595 55 721 147 "},"Ō":{"ha":900,"x_min":0,"x_max":0,"o":"m 246 1208 l 246 1282 l 654 1282 l 654 1208 m 91 675 b 450 995 91 877 260 995 b 809 675 641 995 809 876 l 809 302 b 450 -22 809 101 642 -22 b 91 302 258 -22 91 101 m 721 675 b 450 917 721 830 594 917 b 179 675 306 917 179 830 l 179 302 b 450 55 179 147 304 55 b 721 302 595 55 721 147 "},"Ṓ":{"ha":900,"x_min":0,"x_max":0,"o":"m 351 1236 l 454 1366 l 549 1366 l 419 1236 m 246 1095 l 246 1169 l 654 1169 l 654 1095 m 91 675 b 450 995 91 877 260 995 b 809 675 641 995 809 876 l 809 302 b 450 -22 809 101 642 -22 b 91 302 258 -22 91 101 m 721 675 b 450 917 721 830 594 917 b 179 675 306 917 179 830 l 179 302 b 450 55 179 147 304 55 b 721 302 595 55 721 147 "},"Ṑ":{"ha":900,"x_min":0,"x_max":0,"o":"m 549 1236 l 481 1236 l 351 1366 l 446 1366 m 246 1095 l 246 1169 l 654 1169 l 654 1095 m 91 675 b 450 995 91 877 260 995 b 809 675 641 995 809 876 l 809 302 b 450 -22 809 101 642 -22 b 91 302 258 -22 91 101 m 721 675 b 450 917 721 830 594 917 b 179 675 306 917 179 830 l 179 302 b 450 55 179 147 304 55 b 721 302 595 55 721 147 "},"Ø":{"ha":913,"x_min":0,"x_max":0,"o":"m 690 924 b 816 675 766 869 816 785 l 816 302 b 456 -22 816 101 648 -22 b 284 14 395 -22 336 -10 l 247 -69 l 170 -69 l 223 50 b 97 302 147 106 97 192 l 97 675 b 456 995 97 877 266 995 b 629 959 518 995 577 983 l 666 1042 l 743 1042 m 185 302 b 258 128 185 229 213 170 l 596 886 b 456 917 555 906 507 917 b 185 675 312 917 185 830 m 727 675 b 655 846 727 748 699 805 l 317 87 b 456 55 358 66 406 55 b 727 302 601 55 727 147 "},"Ǿ":{"ha":913,"x_min":0,"x_max":0,"o":"m 353 1190 l 456 1319 l 552 1319 l 422 1190 m 690 924 b 816 675 766 869 816 785 l 816 302 b 456 -22 816 101 648 -22 b 284 14 395 -22 336 -10 l 247 -69 l 170 -69 l 223 50 b 97 302 147 106 97 192 l 97 675 b 456 995 97 877 266 995 b 629 959 518 995 577 983 l 666 1042 l 743 1042 m 185 302 b 258 128 185 229 213 170 l 596 886 b 456 917 555 906 507 917 b 185 675 312 917 185 830 m 727 675 b 655 846 727 748 699 805 l 317 87 b 456 55 358 66 406 55 b 727 302 601 55 727 147 "},"Õ":{"ha":900,"x_min":0,"x_max":0,"o":"m 264 1199 b 368 1317 285 1259 310 1317 b 421 1300 388 1317 406 1309 l 487 1257 b 526 1244 499 1249 513 1244 b 576 1308 554 1244 571 1286 l 636 1296 b 540 1178 628 1257 596 1178 b 482 1195 520 1178 499 1185 l 414 1239 b 379 1250 405 1244 391 1250 b 322 1180 352 1250 337 1219 m 91 675 b 450 995 91 877 260 995 b 809 675 641 995 809 876 l 809 302 b 450 -22 809 101 642 -22 b 91 302 258 -22 91 101 m 721 675 b 450 917 721 830 594 917 b 179 675 306 917 179 830 l 179 302 b 450 55 179 147 304 55 b 721 302 595 55 721 147 "},"Ṍ":{"ha":900,"x_min":0,"x_max":0,"o":"m 351 1231 l 454 1361 l 549 1361 l 419 1231 m 264 1078 b 368 1196 285 1138 310 1196 b 421 1179 388 1196 406 1188 l 487 1136 b 526 1123 499 1128 513 1123 b 576 1187 554 1123 571 1165 l 636 1174 b 540 1056 628 1136 596 1056 b 482 1073 520 1056 499 1063 l 414 1118 b 379 1129 405 1123 391 1129 b 322 1059 352 1129 337 1098 m 91 675 b 450 995 91 877 260 995 b 809 675 641 995 809 876 l 809 302 b 450 -22 809 101 642 -22 b 91 302 258 -22 91 101 m 721 675 b 450 917 721 830 594 917 b 179 675 306 917 179 830 l 179 302 b 450 55 179 147 304 55 b 721 302 595 55 721 147 "},"Œ":{"ha":1406,"x_min":0,"x_max":0,"o":"m 101 675 b 460 995 101 877 270 995 b 748 850 581 995 693 943 l 748 972 l 1344 972 l 1344 895 l 837 895 l 837 542 l 1298 542 l 1298 464 l 837 464 l 837 78 l 1357 78 l 1357 0 l 748 0 l 748 125 b 460 -22 693 30 582 -22 b 101 302 268 -22 101 101 m 731 685 b 460 917 731 833 601 917 b 190 675 316 917 190 830 l 190 302 b 460 55 190 147 315 55 b 731 289 601 55 731 150 "},"P":{"ha":876,"x_min":0,"x_max":0,"o":"m 524 972 b 813 666 726 972 813 844 b 524 362 813 490 727 362 l 218 362 l 218 0 l 129 0 l 129 972 m 218 439 l 524 439 b 723 666 664 439 723 533 b 524 895 723 801 664 895 l 218 895 "},"Þ":{"ha":746,"x_min":0,"x_max":0,"o":"m 463 807 b 718 536 642 807 718 694 b 463 268 718 381 642 268 l 196 268 l 196 0 l 107 0 l 107 972 l 196 972 l 196 807 m 196 346 l 459 346 b 629 536 577 346 629 423 b 459 730 629 651 577 730 l 196 730 "},"Q":{"ha":907,"x_min":0,"x_max":0,"o":"m 91 675 b 450 994 91 876 260 994 b 810 675 641 994 810 876 l 810 301 b 662 40 810 183 750 93 l 817 -118 l 759 -177 l 585 0 b 450 -24 543 -15 498 -24 b 91 301 258 -24 91 101 m 720 675 b 450 916 720 829 594 916 b 179 675 306 916 179 829 l 179 301 b 450 54 179 146 305 54 b 720 301 595 54 720 146 "},"R":{"ha":911,"x_min":0,"x_max":0,"o":"m 524 972 b 813 680 726 972 813 849 b 572 398 813 527 741 414 l 825 0 l 724 0 l 479 388 l 218 388 l 218 0 l 129 0 l 129 972 m 218 466 l 524 466 b 724 680 665 466 724 554 b 524 895 724 807 665 895 l 218 895 "},"Ŕ":{"ha":911,"x_min":0,"x_max":0,"o":"m 372 1186 l 475 1316 l 571 1316 l 441 1186 m 524 972 b 813 680 726 972 813 849 b 572 398 813 527 741 414 l 825 0 l 724 0 l 479 388 l 218 388 l 218 0 l 129 0 l 129 972 m 218 466 l 524 466 b 724 680 665 466 724 554 b 524 895 724 807 665 895 l 218 895 "},"Ř":{"ha":911,"x_min":0,"x_max":0,"o":"m 440 1186 l 338 1316 l 402 1316 l 471 1247 l 540 1316 l 605 1316 l 502 1186 m 524 972 b 813 680 726 972 813 849 b 572 398 813 527 741 414 l 825 0 l 724 0 l 479 388 l 218 388 l 218 0 l 129 0 l 129 972 m 218 466 l 524 466 b 724 680 665 466 724 554 b 524 895 724 807 665 895 l 218 895 "},"Ŗ":{"ha":911,"x_min":0,"x_max":0,"o":"m 524 972 b 813 680 726 972 813 849 b 572 398 813 527 741 414 l 825 0 l 724 0 l 479 388 l 218 388 l 218 0 l 129 0 l 129 972 m 218 466 l 524 466 b 724 680 665 466 724 554 b 524 895 724 807 665 895 l 218 895 m 518 -210 b 419 -294 518 -263 470 -297 l 419 -242 b 447 -210 435 -239 447 -228 l 447 -114 l 518 -114 "},"S":{"ha":763,"x_min":0,"x_max":0,"o":"m 86 107 b 373 54 209 67 280 54 b 608 249 478 54 608 64 b 370 472 608 388 490 431 b 82 742 230 519 83 570 b 398 995 82 873 147 995 b 665 931 469 995 583 982 l 623 863 b 398 917 550 905 463 917 b 171 742 220 917 171 836 b 394 546 171 622 281 584 b 697 249 544 494 697 443 b 373 -24 697 -15 509 -24 b 63 32 271 -24 190 -11 "},"Ś":{"ha":763,"x_min":0,"x_max":0,"o":"m 282 1186 l 385 1316 l 481 1316 l 351 1186 m 86 107 b 373 54 209 67 280 54 b 608 249 478 54 608 64 b 370 472 608 388 490 431 b 82 742 230 519 83 570 b 398 995 82 873 147 995 b 665 931 469 995 583 982 l 623 863 b 398 917 550 905 463 917 b 171 742 220 917 171 836 b 394 546 171 622 281 584 b 697 249 544 494 697 443 b 373 -24 697 -15 509 -24 b 63 32 271 -24 190 -11 "},"Š":{"ha":763,"x_min":0,"x_max":0,"o":"m 351 1186 l 248 1316 l 312 1316 l 381 1247 l 450 1316 l 515 1316 l 412 1186 m 86 107 b 373 54 209 67 280 54 b 608 249 478 54 608 64 b 370 472 608 388 490 431 b 82 742 230 519 83 570 b 398 995 82 873 147 995 b 665 931 469 995 583 982 l 623 863 b 398 917 550 905 463 917 b 171 742 220 917 171 836 b 394 546 171 622 281 584 b 697 249 544 494 697 443 b 373 -24 697 -15 509 -24 b 63 32 271 -24 190 -11 "},"Ş":{"ha":763,"x_min":0,"x_max":0,"o":"m 86 107 b 373 54 209 67 280 54 b 608 248 478 54 608 64 b 370 471 608 387 490 431 b 82 741 231 518 83 570 b 398 995 82 872 147 995 b 665 931 469 995 583 982 l 623 862 b 398 917 550 904 463 917 b 171 741 220 917 171 835 b 394 546 171 621 281 583 b 697 248 544 494 697 443 b 404 -22 697 4 535 -18 b 372 -24 393 -24 382 -24 l 372 -61 l 404 -61 b 510 -156 490 -61 510 -110 b 253 -275 510 -271 453 -275 l 253 -231 b 451 -156 414 -231 451 -229 b 380 -104 451 -129 438 -104 l 324 -104 l 324 -22 b 63 32 242 -18 168 -3 "},"Ș":{"ha":763,"x_min":0,"x_max":0,"o":"m 86 107 b 373 54 209 67 280 54 b 608 249 478 54 608 64 b 370 472 608 388 490 431 b 82 742 230 519 83 570 b 398 995 82 873 147 995 b 665 931 469 995 583 982 l 623 863 b 398 917 550 905 463 917 b 171 742 220 917 171 836 b 394 546 171 622 281 584 b 697 249 544 494 697 443 b 373 -24 697 -15 509 -24 b 63 32 271 -24 190 -11 m 429 -209 b 329 -294 429 -262 380 -297 l 329 -241 b 357 -209 345 -239 357 -228 l 357 -114 l 429 -114 "},"Ṣ":{"ha":763,"x_min":0,"x_max":0,"o":"m 86 107 b 373 54 209 67 280 54 b 608 249 478 54 608 64 b 370 472 608 388 490 431 b 82 742 230 519 83 570 b 398 995 82 873 147 995 b 665 931 469 995 583 982 l 623 863 b 398 917 550 905 463 917 b 171 742 220 917 171 836 b 394 546 171 622 281 584 b 697 249 544 494 697 443 b 373 -24 697 -15 509 -24 b 63 32 271 -24 190 -11 m 344 -232 l 344 -158 l 419 -158 l 419 -232 "},"T":{"ha":797,"x_min":0,"x_max":0,"o":"m 444 895 l 444 0 l 355 0 l 355 895 l 61 895 l 61 972 l 736 972 l 736 895 "},"Ŧ":{"ha":797,"x_min":0,"x_max":0,"o":"m 195 1208 l 195 1282 l 602 1282 l 602 1208 m 444 895 l 444 0 l 355 0 l 355 895 l 61 895 l 61 972 l 736 972 l 736 895 "},"Ť":{"ha":797,"x_min":0,"x_max":0,"o":"m 367 1186 l 265 1316 l 329 1316 l 398 1247 l 467 1316 l 532 1316 l 429 1186 m 444 895 l 444 0 l 355 0 l 355 895 l 61 895 l 61 972 l 736 972 l 736 895 "},"Ţ":{"ha":797,"x_min":0,"x_max":0,"o":"m 444 895 l 444 0 l 427 0 l 427 -47 l 459 -47 b 565 -142 545 -47 565 -96 b 308 -262 565 -257 508 -262 l 308 -217 b 506 -142 469 -217 506 -215 b 435 -90 506 -115 493 -90 l 379 -90 l 383 0 l 355 0 l 355 895 l 61 895 l 61 972 l 736 972 l 736 895 "},"Ṱ":{"ha":797,"x_min":0,"x_max":0,"o":"m 444 895 l 444 0 l 355 0 l 355 895 l 61 895 l 61 972 l 736 972 l 736 895 m 465 -232 l 396 -162 l 327 -232 l 262 -232 l 365 -103 l 427 -103 l 530 -232 "},"Ț":{"ha":797,"x_min":0,"x_max":0,"o":"m 444 895 l 444 0 l 355 0 l 355 895 l 61 895 l 61 972 l 736 972 l 736 895 m 445 -210 b 346 -294 445 -262 397 -297 l 346 -242 b 374 -210 362 -239 374 -228 l 374 -114 l 445 -114 "},"Ṭ":{"ha":797,"x_min":0,"x_max":0,"o":"m 444 895 l 444 0 l 355 0 l 355 895 l 61 895 l 61 972 l 736 972 l 736 895 m 361 -232 l 361 -158 l 436 -158 l 436 -232 "},"Ṯ":{"ha":797,"x_min":0,"x_max":0,"o":"m 444 895 l 444 0 l 355 0 l 355 895 l 61 895 l 61 972 l 736 972 l 736 895 m 194 -233 l 194 -158 l 602 -158 l 602 -233 "},"U":{"ha":957,"x_min":0,"x_max":0,"o":"m 840 324 b 484 -24 840 108 721 -24 b 129 324 249 -24 129 108 l 129 972 l 218 972 l 218 324 b 484 55 218 153 307 55 b 751 324 662 55 751 153 l 751 972 l 840 972 "},"Ú":{"ha":957,"x_min":0,"x_max":0,"o":"m 386 1186 l 488 1316 l 584 1316 l 454 1186 m 840 324 b 484 -24 840 108 721 -24 b 129 324 249 -24 129 108 l 129 972 l 218 972 l 218 324 b 484 55 218 153 307 55 b 751 324 662 55 751 153 l 751 972 l 840 972 "},"Ǔ":{"ha":957,"x_min":0,"x_max":0,"o":"m 454 1186 l 351 1316 l 416 1316 l 485 1247 l 554 1316 l 618 1316 l 515 1186 m 840 324 b 484 -24 840 108 721 -24 b 129 324 249 -24 129 108 l 129 972 l 218 972 l 218 324 b 484 55 218 153 307 55 b 751 324 662 55 751 153 l 751 972 l 840 972 "},"Û":{"ha":957,"x_min":0,"x_max":0,"o":"m 554 1186 l 485 1256 l 416 1186 l 351 1186 l 454 1316 l 515 1316 l 619 1186 m 840 324 b 484 -24 840 108 721 -24 b 129 324 249 -24 129 108 l 129 972 l 218 972 l 218 324 b 484 55 218 153 307 55 b 751 324 662 55 751 153 l 751 972 l 840 972 "},"Ü":{"ha":957,"x_min":0,"x_max":0,"o":"m 359 1207 l 359 1281 l 434 1281 l 434 1207 m 536 1207 l 536 1281 l 610 1281 l 610 1207 m 840 324 b 484 -24 840 108 721 -24 b 129 324 249 -24 129 108 l 129 972 l 218 972 l 218 324 b 484 55 218 153 307 55 b 751 324 662 55 751 153 l 751 972 l 840 972 "},"Ǘ":{"ha":957,"x_min":0,"x_max":0,"o":"m 386 1236 l 488 1366 l 584 1366 l 454 1236 m 536 1042 l 536 1116 l 610 1116 l 610 1042 m 359 1042 l 359 1116 l 434 1116 l 434 1042 m 840 324 b 484 -24 840 108 721 -24 b 129 324 249 -24 129 108 l 129 972 l 218 972 l 218 324 b 484 55 218 153 307 55 b 751 324 662 55 751 153 l 751 972 l 840 972 "},"Ǚ":{"ha":957,"x_min":0,"x_max":0,"o":"m 454 1235 l 351 1364 l 416 1364 l 485 1295 l 554 1364 l 618 1364 l 515 1235 m 536 1042 l 536 1116 l 610 1116 l 610 1042 m 359 1042 l 359 1116 l 434 1116 l 434 1042 m 840 324 b 484 -24 840 108 721 -24 b 129 324 249 -24 129 108 l 129 972 l 218 972 l 218 324 b 484 55 218 153 307 55 b 751 324 662 55 751 153 l 751 972 l 840 972 "},"Ǜ":{"ha":957,"x_min":0,"x_max":0,"o":"m 516 1236 l 385 1366 l 481 1366 l 584 1236 m 536 1042 l 536 1116 l 610 1116 l 610 1042 m 359 1042 l 359 1116 l 434 1116 l 434 1042 m 840 324 b 484 -24 840 108 721 -24 b 129 324 249 -24 129 108 l 129 972 l 218 972 l 218 324 b 484 55 218 153 307 55 b 751 324 662 55 751 153 l 751 972 l 840 972 "},"Ǖ":{"ha":957,"x_min":0,"x_max":0,"o":"m 281 1257 l 281 1331 l 688 1331 l 688 1257 m 359 1107 l 359 1181 l 434 1181 l 434 1107 m 536 1107 l 536 1181 l 610 1181 l 610 1107 m 840 324 b 484 -24 840 108 721 -24 b 129 324 249 -24 129 108 l 129 972 l 218 972 l 218 324 b 484 55 218 153 307 55 b 751 324 662 55 751 153 l 751 972 l 840 972 "},"Ụ":{"ha":957,"x_min":0,"x_max":0,"o":"m 840 324 b 484 -24 840 108 721 -24 b 129 324 249 -24 129 108 l 129 972 l 218 972 l 218 324 b 484 55 218 153 307 55 b 751 324 662 55 751 153 l 751 972 l 840 972 m 447 -236 l 447 -161 l 522 -161 l 522 -236 "},"Ù":{"ha":957,"x_min":0,"x_max":0,"o":"m 516 1186 l 385 1316 l 481 1316 l 584 1186 m 840 324 b 484 -24 840 108 721 -24 b 129 324 249 -24 129 108 l 129 972 l 218 972 l 218 324 b 484 55 218 153 307 55 b 751 324 662 55 751 153 l 751 972 l 840 972 "},"Ű":{"ha":957,"x_min":0,"x_max":0,"o":"m 290 1186 l 393 1316 l 489 1316 l 359 1186 m 481 1186 l 583 1316 l 679 1316 l 549 1186 m 840 324 b 484 -24 840 108 721 -24 b 129 324 249 -24 129 108 l 129 972 l 218 972 l 218 324 b 484 55 218 153 307 55 b 751 324 662 55 751 153 l 751 972 l 840 972 "},"Ū":{"ha":957,"x_min":0,"x_max":0,"o":"m 281 1208 l 281 1282 l 688 1282 l 688 1208 m 840 324 b 484 -24 840 108 721 -24 b 129 324 249 -24 129 108 l 129 972 l 218 972 l 218 324 b 484 55 218 153 307 55 b 751 324 662 55 751 153 l 751 972 l 840 972 "},"Ų":{"ha":957,"x_min":0,"x_max":0,"o":"m 840 324 b 579 -14 840 139 753 17 b 562 -60 566 -26 562 -43 b 758 -199 562 -161 596 -199 l 758 -249 b 511 -68 553 -249 511 -199 b 518 -22 511 -50 513 -35 b 484 -24 507 -24 496 -24 b 129 324 249 -24 129 108 l 129 972 l 218 972 l 218 324 b 484 55 218 153 307 55 b 751 324 662 55 751 153 l 751 972 l 840 972 "},"Ů":{"ha":957,"x_min":0,"x_max":0,"o":"m 484 1337 b 622 1199 561 1337 622 1275 b 484 1063 622 1123 561 1063 b 348 1199 408 1063 348 1123 b 484 1337 348 1275 408 1337 m 484 1279 b 405 1199 441 1279 405 1244 b 484 1120 405 1155 441 1120 b 564 1199 529 1120 564 1155 b 484 1279 564 1244 529 1279 m 840 324 b 484 -24 840 108 721 -24 b 129 324 249 -24 129 108 l 129 972 l 218 972 l 218 324 b 484 55 218 153 307 55 b 751 324 662 55 751 153 l 751 972 l 840 972 "},"Ũ":{"ha":957,"x_min":0,"x_max":0,"o":"m 299 1199 b 403 1317 320 1259 345 1317 b 456 1300 422 1317 441 1309 l 522 1257 b 561 1244 534 1249 548 1244 b 611 1308 589 1244 606 1286 l 670 1296 b 574 1178 662 1257 631 1178 b 517 1195 555 1178 534 1185 l 449 1239 b 413 1250 440 1244 426 1250 b 357 1180 387 1250 372 1219 m 840 324 b 484 -24 840 108 721 -24 b 129 324 249 -24 129 108 l 129 972 l 218 972 l 218 324 b 484 55 218 153 307 55 b 751 324 662 55 751 153 l 751 972 l 840 972 "},"V":{"ha":910,"x_min":0,"x_max":0,"o":"m 411 0 l 61 972 l 154 972 l 455 121 l 757 972 l 849 972 l 499 0 "},"W":{"ha":1283,"x_min":0,"x_max":0,"o":"m 886 0 l 642 807 l 398 0 l 308 0 l 61 972 l 152 972 l 354 163 l 595 972 l 688 972 l 930 163 l 1132 972 l 1223 972 l 976 0 "},"Ẃ":{"ha":1283,"x_min":0,"x_max":0,"o":"m 543 1190 l 645 1319 l 741 1319 l 611 1190 m 886 0 l 642 807 l 398 0 l 308 0 l 61 972 l 152 972 l 354 163 l 595 972 l 688 972 l 930 163 l 1132 972 l 1223 972 l 976 0 "},"Ŵ":{"ha":1283,"x_min":0,"x_max":0,"o":"m 711 1190 l 642 1259 l 573 1190 l 508 1190 l 611 1319 l 672 1319 l 776 1190 m 886 0 l 642 807 l 398 0 l 308 0 l 61 972 l 152 972 l 354 163 l 595 972 l 688 972 l 930 163 l 1132 972 l 1223 972 l 976 0 "},"Ẅ":{"ha":1283,"x_min":0,"x_max":0,"o":"m 516 1210 l 516 1285 l 591 1285 l 591 1210 m 693 1210 l 693 1285 l 767 1285 l 767 1210 m 886 0 l 642 807 l 398 0 l 308 0 l 61 972 l 152 972 l 354 163 l 595 972 l 688 972 l 930 163 l 1132 972 l 1223 972 l 976 0 "},"Ẁ":{"ha":1283,"x_min":0,"x_max":0,"o":"m 673 1190 l 543 1319 l 638 1319 l 741 1190 m 886 0 l 642 807 l 398 0 l 308 0 l 61 972 l 152 972 l 354 163 l 595 972 l 688 972 l 930 163 l 1132 972 l 1223 972 l 976 0 "},"X":{"ha":932,"x_min":0,"x_max":0,"o":"m 870 0 l 764 0 l 465 416 l 167 0 l 61 0 l 413 486 l 61 972 l 167 972 l 465 555 l 764 972 l 870 972 l 517 486 "},"Y":{"ha":938,"x_min":0,"x_max":0,"o":"m 513 0 l 424 0 l 424 371 l 61 972 l 164 972 l 468 467 l 773 972 l 876 972 l 513 371 "},"Ý":{"ha":938,"x_min":0,"x_max":0,"o":"m 369 1186 l 472 1316 l 568 1316 l 438 1186 m 513 0 l 424 0 l 424 371 l 61 972 l 164 972 l 468 467 l 773 972 l 876 972 l 513 371 "},"Ŷ":{"ha":938,"x_min":0,"x_max":0,"o":"m 537 1186 l 468 1256 l 399 1186 l 335 1186 l 438 1316 l 499 1316 l 602 1186 m 513 0 l 424 0 l 424 371 l 61 972 l 164 972 l 468 467 l 773 972 l 876 972 l 513 371 "},"Ÿ":{"ha":938,"x_min":0,"x_max":0,"o":"m 343 1207 l 343 1281 l 418 1281 l 418 1207 m 519 1207 l 519 1281 l 594 1281 l 594 1207 m 513 0 l 424 0 l 424 371 l 61 972 l 164 972 l 468 467 l 773 972 l 876 972 l 513 371 "},"Ỳ":{"ha":938,"x_min":0,"x_max":0,"o":"m 500 1186 l 369 1316 l 465 1316 l 568 1186 m 513 0 l 424 0 l 424 371 l 61 972 l 164 972 l 468 467 l 773 972 l 876 972 l 513 371 "},"Z":{"ha":790,"x_min":0,"x_max":0,"o":"m 177 78 l 726 78 l 726 0 l 64 0 l 64 58 l 599 895 l 90 895 l 90 972 l 711 972 l 711 913 "},"Ź":{"ha":790,"x_min":0,"x_max":0,"o":"m 295 1186 l 398 1316 l 493 1316 l 364 1186 m 177 78 l 726 78 l 726 0 l 64 0 l 64 58 l 599 895 l 90 895 l 90 972 l 711 972 l 711 913 "},"Ž":{"ha":790,"x_min":0,"x_max":0,"o":"m 363 1186 l 260 1316 l 325 1316 l 394 1247 l 463 1316 l 528 1316 l 425 1186 m 177 78 l 726 78 l 726 0 l 64 0 l 64 58 l 599 895 l 90 895 l 90 972 l 711 972 l 711 913 "},"Ż":{"ha":790,"x_min":0,"x_max":0,"o":"m 357 1207 l 357 1281 l 432 1281 l 432 1207 m 177 78 l 726 78 l 726 0 l 64 0 l 64 58 l 599 895 l 90 895 l 90 972 l 711 972 l 711 913 "},"Ẓ":{"ha":790,"x_min":0,"x_max":0,"o":"m 177 78 l 726 78 l 726 0 l 64 0 l 64 58 l 599 895 l 90 895 l 90 972 l 711 972 l 711 913 m 371 -236 l 371 -161 l 446 -161 l 446 -236 "},"a":{"ha":760,"x_min":0,"x_max":0,"o":"m 128 662 b 382 716 205 696 309 716 b 646 471 531 716 646 656 l 646 60 l 663 0 l 574 0 l 564 40 b 303 -22 486 -3 375 -22 b 80 188 108 -22 80 102 b 309 425 81 288 114 421 b 561 373 376 426 460 424 l 561 478 b 379 648 561 609 484 648 b 152 600 316 648 222 632 m 561 307 b 329 363 467 362 392 363 b 165 191 188 363 165 267 b 323 50 165 127 183 50 b 561 109 386 50 490 67 "},"á":{"ha":760,"x_min":0,"x_max":0,"o":"m 284 912 l 387 1042 l 482 1042 l 353 912 m 128 662 b 382 716 205 696 309 716 b 646 471 531 716 646 656 l 646 60 l 663 0 l 574 0 l 564 40 b 303 -22 486 -3 375 -22 b 80 188 108 -22 80 102 b 309 425 81 288 114 421 b 561 373 376 426 460 424 l 561 478 b 379 648 561 609 484 648 b 152 600 316 648 222 632 m 561 307 b 329 363 467 362 392 363 b 165 191 188 363 165 267 b 323 50 165 127 183 50 b 561 109 386 50 490 67 "},"ă":{"ha":760,"x_min":0,"x_max":0,"o":"m 570 1042 b 397 871 570 936 490 871 l 370 871 b 197 1042 276 871 197 936 l 261 1042 b 370 931 261 977 313 931 l 397 931 b 505 1042 453 931 505 977 m 128 662 b 382 716 205 696 309 716 b 646 471 531 716 646 656 l 646 60 l 663 0 l 574 0 l 564 40 b 303 -22 486 -3 375 -22 b 80 188 108 -22 80 102 b 309 425 81 288 114 421 b 561 373 376 426 460 424 l 561 478 b 379 648 561 609 484 648 b 152 600 316 648 222 632 m 561 307 b 329 363 467 362 392 363 b 165 191 188 363 165 267 b 323 50 165 127 183 50 b 561 109 386 50 490 67 "},"ǎ":{"ha":760,"x_min":0,"x_max":0,"o":"m 352 912 l 250 1042 l 314 1042 l 383 972 l 452 1042 l 517 1042 l 414 912 m 128 662 b 382 716 205 696 309 716 b 646 471 531 716 646 656 l 646 60 l 663 0 l 574 0 l 564 40 b 303 -22 486 -3 375 -22 b 80 188 108 -22 80 102 b 309 425 81 288 114 421 b 561 373 376 426 460 424 l 561 478 b 379 648 561 609 484 648 b 152 600 316 648 222 632 m 561 307 b 329 363 467 362 392 363 b 165 191 188 363 165 267 b 323 50 165 127 183 50 b 561 109 386 50 490 67 "},"â":{"ha":760,"x_min":0,"x_max":0,"o":"m 452 912 l 383 981 l 314 912 l 250 912 l 352 1042 l 414 1042 l 517 912 m 128 662 b 382 716 205 696 309 716 b 646 471 531 716 646 656 l 646 60 l 663 0 l 574 0 l 564 40 b 303 -22 486 -3 375 -22 b 80 188 108 -22 80 102 b 309 425 81 288 114 421 b 561 373 376 426 460 424 l 561 478 b 379 648 561 609 484 648 b 152 600 316 648 222 632 m 561 307 b 329 363 467 362 392 363 b 165 191 188 363 165 267 b 323 50 165 127 183 50 b 561 109 386 50 490 67 "},"ậ":{"ha":760,"x_min":0,"x_max":0,"o":"m 452 912 l 383 981 l 314 912 l 250 912 l 352 1042 l 414 1042 l 517 912 m 128 662 b 382 716 205 696 309 716 b 646 471 531 716 646 656 l 646 60 l 663 0 l 574 0 l 564 40 b 303 -22 486 -3 375 -22 b 80 188 108 -22 80 102 b 309 425 81 288 114 421 b 561 373 376 426 460 424 l 561 478 b 379 648 561 609 484 648 b 152 600 316 648 222 632 m 561 307 b 329 363 467 362 392 363 b 165 191 188 363 165 267 b 323 50 165 127 183 50 b 561 109 386 50 490 67 m 349 -236 l 349 -161 l 424 -161 l 424 -236 "},"ä":{"ha":760,"x_min":0,"x_max":0,"o":"m 258 933 l 258 1007 l 332 1007 l 332 933 m 434 933 l 434 1007 l 509 1007 l 509 933 m 128 662 b 382 716 205 696 309 716 b 646 471 531 716 646 656 l 646 60 l 663 0 l 574 0 l 564 40 b 303 -22 486 -3 375 -22 b 80 188 108 -22 80 102 b 309 425 81 288 114 421 b 561 373 376 426 460 424 l 561 478 b 379 648 561 609 484 648 b 152 600 316 648 222 632 m 561 307 b 329 363 467 362 392 363 b 165 191 188 363 165 267 b 323 50 165 127 183 50 b 561 109 386 50 490 67 "},"ǟ":{"ha":760,"x_min":0,"x_max":0,"o":"m 180 1043 l 180 1117 l 587 1117 l 587 1043 m 258 898 l 258 972 l 332 972 l 332 898 m 434 898 l 434 972 l 509 972 l 509 898 m 128 662 b 382 716 205 696 309 716 b 646 471 531 716 646 656 l 646 60 l 663 0 l 574 0 l 564 40 b 303 -22 486 -3 375 -22 b 80 188 108 -22 80 102 b 309 425 81 288 114 421 b 561 373 376 426 460 424 l 561 478 b 379 648 561 609 484 648 b 152 600 316 648 222 632 m 561 307 b 329 363 467 362 392 363 b 165 191 188 363 165 267 b 323 50 165 127 183 50 b 561 109 386 50 490 67 "},"ạ":{"ha":760,"x_min":0,"x_max":0,"o":"m 128 662 b 382 716 205 696 309 716 b 646 471 531 716 646 656 l 646 60 l 663 0 l 574 0 l 564 40 b 303 -22 486 -3 375 -22 b 80 188 108 -22 80 102 b 309 425 81 288 114 421 b 561 373 376 426 460 424 l 561 478 b 379 648 561 609 484 648 b 152 600 316 648 222 632 m 561 307 b 329 363 467 362 392 363 b 165 191 188 363 165 267 b 323 50 165 127 183 50 b 561 109 386 50 490 67 m 349 -236 l 349 -161 l 424 -161 l 424 -236 "},"à":{"ha":760,"x_min":0,"x_max":0,"o":"m 414 912 l 284 1042 l 380 1042 l 483 912 m 128 662 b 382 716 205 696 309 716 b 646 471 531 716 646 656 l 646 60 l 663 0 l 574 0 l 564 40 b 303 -22 486 -3 375 -22 b 80 188 108 -22 80 102 b 309 425 81 288 114 421 b 561 373 376 426 460 424 l 561 478 b 379 648 561 609 484 648 b 152 600 316 648 222 632 m 561 307 b 329 363 467 362 392 363 b 165 191 188 363 165 267 b 323 50 165 127 183 50 b 561 109 386 50 490 67 "},"ā":{"ha":760,"x_min":0,"x_max":0,"o":"m 180 933 l 180 1007 l 587 1007 l 587 933 m 128 662 b 382 716 205 696 309 716 b 646 471 531 716 646 656 l 646 60 l 663 0 l 574 0 l 564 40 b 303 -22 486 -3 375 -22 b 80 188 108 -22 80 102 b 309 425 81 288 114 421 b 561 373 376 426 460 424 l 561 478 b 379 648 561 609 484 648 b 152 600 316 648 222 632 m 561 307 b 329 363 467 362 392 363 b 165 191 188 363 165 267 b 323 50 165 127 183 50 b 561 109 386 50 490 67 "},"ą":{"ha":760,"x_min":0,"x_max":0,"o":"m 128 662 b 382 716 205 696 309 716 b 646 471 531 716 646 656 l 646 60 l 663 0 l 639 -21 b 556 -72 570 -21 556 -39 b 753 -211 556 -174 590 -211 l 753 -261 b 505 -81 547 -261 505 -211 b 574 -1 505 -33 519 -8 l 564 40 b 303 -22 486 -3 375 -22 b 80 188 108 -22 80 102 b 309 425 81 288 114 421 b 561 373 376 426 460 424 l 561 478 b 379 648 561 609 484 648 b 152 600 316 648 222 632 m 561 307 b 329 363 467 362 392 363 b 165 191 188 363 165 267 b 323 50 165 127 183 50 b 561 109 386 50 490 67 "},"å":{"ha":760,"x_min":0,"x_max":0,"o":"m 383 1063 b 520 925 459 1063 520 1001 b 383 789 520 849 459 789 b 246 925 306 789 246 849 b 383 1063 246 1001 306 1063 m 383 1005 b 304 925 339 1005 304 969 b 383 846 304 881 339 846 b 463 925 427 846 463 881 b 383 1005 463 969 427 1005 m 128 662 b 382 716 205 696 309 716 b 646 471 531 716 646 656 l 646 60 l 663 0 l 574 0 l 564 40 b 303 -22 486 -3 375 -22 b 80 188 108 -22 80 102 b 309 425 81 288 114 421 b 561 373 376 426 460 424 l 561 478 b 379 648 561 609 484 648 b 152 600 316 648 222 632 m 561 307 b 329 363 467 362 392 363 b 165 191 188 363 165 267 b 323 50 165 127 183 50 b 561 109 386 50 490 67 "},"ã":{"ha":760,"x_min":0,"x_max":0,"o":"m 198 925 b 302 1043 218 984 244 1043 b 355 1026 321 1043 339 1035 l 420 983 b 459 970 432 975 447 970 b 509 1034 488 970 505 1011 l 569 1021 b 473 903 561 982 530 903 b 415 920 453 903 433 910 l 347 964 b 312 976 338 970 324 976 b 255 906 285 976 270 945 m 128 662 b 382 716 205 696 309 716 b 646 471 531 716 646 656 l 646 60 l 663 0 l 574 0 l 564 40 b 303 -22 486 -3 375 -22 b 80 188 108 -22 80 102 b 309 425 81 288 114 421 b 561 373 376 426 460 424 l 561 478 b 379 648 561 609 484 648 b 152 600 316 648 222 632 m 561 307 b 329 363 467 362 392 363 b 165 191 188 363 165 267 b 323 50 165 127 183 50 b 561 109 386 50 490 67 "},"æ":{"ha":1261,"x_min":0,"x_max":0,"o":"m 128 662 b 382 716 205 695 309 716 b 637 546 508 716 609 673 b 898 716 678 647 766 716 b 1191 393 1093 716 1191 570 l 1191 299 l 692 299 l 692 266 b 908 47 693 127 764 47 b 1142 100 950 47 1052 55 l 1171 39 b 909 -22 1063 -14 943 -22 b 648 109 781 -22 694 26 l 650 49 l 663 0 l 574 0 l 564 40 b 303 -22 486 -3 375 -22 b 80 188 108 -22 80 102 b 309 425 81 288 114 421 b 561 373 376 426 460 424 l 561 478 b 379 648 561 609 484 648 b 152 600 316 648 222 632 m 1105 409 b 899 647 1105 544 1034 647 b 693 409 764 647 693 544 l 693 359 l 1105 359 m 561 306 b 329 363 467 362 392 363 b 165 190 188 363 165 267 b 323 49 165 127 183 49 b 561 109 386 49 490 66 "},"b":{"ha":771,"x_min":0,"x_max":0,"o":"m 193 650 b 439 717 277 694 363 717 b 694 436 582 717 694 634 l 694 260 b 424 -21 694 105 604 -21 b 108 32 339 -21 198 2 l 108 972 l 193 972 m 610 430 b 420 645 610 580 533 645 b 193 577 353 645 276 622 l 193 88 b 422 52 264 67 368 52 b 610 266 549 52 610 143 "},"ḅ":{"ha":771,"x_min":0,"x_max":0,"o":"m 193 650 b 439 717 277 694 363 717 b 694 436 582 717 694 634 l 694 260 b 424 -21 694 105 604 -21 b 108 32 339 -21 198 2 l 108 972 l 193 972 m 610 430 b 420 645 610 580 533 645 b 193 577 353 645 276 622 l 193 88 b 422 52 264 67 368 52 b 610 266 549 52 610 143 m 329 -236 l 329 -161 l 404 -161 l 404 -236 "},"c":{"ha":690,"x_min":0,"x_max":0,"o":"m 622 23 b 393 -22 526 -22 399 -22 b 80 349 106 -22 80 155 b 393 717 80 542 106 717 b 621 672 399 717 526 717 l 595 602 b 393 642 507 642 399 642 b 165 349 183 642 165 505 b 393 52 165 191 183 52 b 594 92 399 52 507 52 "},"ć":{"ha":690,"x_min":0,"x_max":0,"o":"m 229 912 l 332 1042 l 428 1042 l 298 912 m 622 23 b 393 -22 526 -22 399 -22 b 80 349 106 -22 80 155 b 393 717 80 542 106 717 b 621 672 399 717 526 717 l 595 602 b 393 643 507 643 399 643 b 165 349 183 643 165 505 b 393 52 165 191 183 52 b 594 92 399 52 507 52 "},"č":{"ha":690,"x_min":0,"x_max":0,"o":"m 297 912 l 195 1042 l 259 1042 l 328 972 l 397 1042 l 462 1042 l 359 912 m 622 23 b 393 -22 526 -22 399 -22 b 80 349 106 -22 80 155 b 393 717 80 542 106 717 b 621 672 399 717 526 717 l 595 602 b 393 643 507 643 399 643 b 165 349 183 643 165 505 b 393 52 165 191 183 52 b 594 92 399 52 507 52 "},"ç":{"ha":664,"x_min":0,"x_max":0,"o":"m 288 -14 b 76 349 95 25 76 181 b 388 716 76 542 102 716 b 617 672 395 716 522 716 l 590 602 b 388 642 503 642 394 642 b 161 348 179 642 161 505 b 388 52 161 190 179 52 b 589 92 394 52 503 52 l 618 22 b 406 -21 539 -14 425 -18 b 336 -18 380 -21 356 -21 l 336 -58 l 369 -58 b 475 -153 454 -58 475 -107 b 217 -274 475 -268 417 -274 l 217 -228 b 416 -153 378 -228 416 -226 b 345 -101 416 -126 403 -101 l 288 -101 "},"ċ":{"ha":690,"x_min":0,"x_max":0,"o":"m 349 932 l 349 1007 l 423 1007 l 423 932 m 622 23 b 393 -22 526 -22 399 -22 b 80 349 106 -22 80 155 b 393 717 80 542 106 717 b 621 672 399 717 526 717 l 595 602 b 393 642 507 642 399 642 b 165 349 183 642 165 505 b 393 52 165 191 183 52 b 594 92 399 52 507 52 "},"d":{"ha":796,"x_min":0,"x_max":0,"o":"m 684 0 l 597 0 l 585 49 b 331 -22 501 4 407 -22 b 80 276 122 -22 80 130 l 80 436 b 335 717 80 634 192 717 b 580 650 410 717 497 694 l 580 972 l 666 972 l 666 68 m 580 577 b 354 645 498 622 421 645 b 164 430 241 645 164 580 l 164 280 b 344 52 164 160 201 52 b 580 120 411 52 497 77 "},"ð":{"ha":818,"x_min":0,"x_max":0,"o":"m 636 928 b 709 679 681 873 709 793 l 709 259 b 380 -22 709 88 580 -22 b 75 259 243 -22 75 31 l 75 377 b 363 614 75 541 201 614 b 623 576 443 614 531 597 l 623 683 b 573 866 623 760 605 821 l 473 764 l 432 805 l 531 904 b 356 963 486 942 427 963 b 154 912 288 963 199 934 l 123 982 b 368 1042 175 1005 278 1042 b 591 965 462 1042 538 1014 l 678 1052 l 718 1012 m 623 502 b 363 540 534 522 451 540 b 160 377 246 540 160 492 l 160 259 b 380 53 160 89 278 53 b 623 259 529 53 623 130 "},"ď":{"ha":994,"x_min":0,"x_max":0,"o":"m 684 0 l 597 0 l 585 49 b 331 -22 501 4 407 -22 b 80 276 122 -22 80 130 l 80 436 b 335 717 80 634 192 717 b 580 650 410 717 497 694 l 580 972 l 666 972 l 666 68 m 915 866 b 795 767 915 804 857 764 l 795 832 b 825 866 813 836 825 847 l 825 972 l 915 972 m 580 577 b 354 645 498 622 421 645 b 164 430 241 645 164 580 l 164 280 b 344 52 164 160 201 52 b 580 120 411 52 497 77 "},"ḓ":{"ha":796,"x_min":0,"x_max":0,"o":"m 684 0 l 597 0 l 585 49 b 331 -22 501 4 407 -22 b 80 276 122 -22 80 130 l 80 436 b 335 717 80 634 192 717 b 580 650 410 717 497 694 l 580 972 l 666 972 l 666 68 m 580 577 b 354 645 498 622 421 645 b 164 430 241 645 164 580 l 164 280 b 344 52 164 160 201 52 b 580 120 411 52 497 77 m 448 -236 l 379 -167 l 310 -236 l 245 -236 l 348 -106 l 409 -106 l 512 -236 "},"đ":{"ha":843,"x_min":0,"x_max":0,"o":"m 666 68 l 684 0 l 597 0 l 585 49 b 331 -22 501 4 407 -22 b 80 276 122 -22 80 130 l 80 436 b 335 717 80 634 192 717 b 580 650 410 717 497 694 l 580 809 l 391 809 l 391 872 l 580 872 l 580 972 l 666 972 l 666 872 l 797 872 l 797 809 l 666 809 m 164 280 b 344 52 164 160 201 52 b 580 120 411 52 497 77 l 580 577 b 354 645 498 622 421 645 b 164 430 241 645 164 580 "},"ḍ":{"ha":796,"x_min":0,"x_max":0,"o":"m 684 0 l 597 0 l 585 49 b 331 -22 501 4 407 -22 b 80 276 122 -22 80 130 l 80 436 b 335 717 80 634 192 717 b 580 650 410 717 497 694 l 580 972 l 666 972 l 666 68 m 580 577 b 354 645 498 622 421 645 b 164 430 241 645 164 580 l 164 280 b 344 52 164 160 201 52 b 580 120 411 52 497 77 m 344 -236 l 344 -161 l 419 -161 l 419 -236 "},"ḏ":{"ha":796,"x_min":0,"x_max":0,"o":"m 684 0 l 597 0 l 585 49 b 331 -22 501 4 407 -22 b 80 276 122 -22 80 130 l 80 436 b 335 717 80 634 192 717 b 580 650 410 717 497 694 l 580 972 l 666 972 l 666 68 m 580 577 b 354 645 498 622 421 645 b 164 430 241 645 164 580 l 164 280 b 344 52 164 160 201 52 b 580 120 411 52 497 77 m 177 -236 l 177 -162 l 584 -162 l 584 -236 "},"e":{"ha":736,"x_min":0,"x_max":0,"o":"m 80 393 b 373 716 80 570 179 716 b 665 393 567 716 665 570 l 665 299 l 166 299 l 166 266 b 382 47 167 127 238 47 b 616 100 424 47 526 55 l 645 39 b 383 -22 537 -14 417 -22 b 80 272 184 -22 80 91 m 579 409 b 373 647 579 544 508 647 b 167 409 238 647 167 544 l 167 359 l 579 359 "},"é":{"ha":733,"x_min":0,"x_max":0,"o":"m 265 912 l 368 1042 l 464 1042 l 334 912 m 80 393 b 373 716 80 570 179 716 b 665 393 567 716 665 570 l 665 299 l 166 299 l 166 266 b 382 47 167 127 238 47 b 616 100 424 47 526 55 l 645 39 b 383 -22 537 -14 417 -22 b 80 272 184 -22 80 91 m 579 409 b 373 647 579 544 508 647 b 167 409 238 647 167 544 l 167 359 l 579 359 "},"ě":{"ha":736,"x_min":0,"x_max":0,"o":"m 334 912 l 231 1042 l 295 1042 l 364 972 l 433 1042 l 498 1042 l 395 912 m 80 393 b 373 716 80 570 179 716 b 665 393 567 716 665 570 l 665 299 l 166 299 l 166 266 b 382 47 167 127 238 47 b 616 100 424 47 526 55 l 645 39 b 383 -22 537 -14 417 -22 b 80 272 184 -22 80 91 m 579 409 b 373 647 579 544 508 647 b 167 409 238 647 167 544 l 167 359 l 579 359 "},"ȩ":{"ha":736,"x_min":0,"x_max":0,"o":"m 80 394 b 373 716 80 570 179 716 b 665 394 567 716 665 570 l 665 299 l 166 299 l 166 266 b 382 47 167 128 238 47 b 616 101 424 47 526 56 l 645 39 b 410 -18 556 -4 450 -15 b 355 -19 390 -19 371 -19 l 355 -58 l 387 -58 b 493 -152 472 -58 493 -106 b 236 -272 493 -268 436 -272 l 236 -227 b 434 -152 397 -227 434 -226 b 363 -101 434 -124 421 -101 l 307 -101 l 307 -15 b 80 272 157 10 80 116 m 579 409 b 373 647 579 544 508 647 b 167 410 238 647 167 544 l 167 360 l 579 360 "},"ê":{"ha":733,"x_min":0,"x_max":0,"o":"m 433 912 l 364 981 l 295 912 l 231 912 l 334 1042 l 395 1042 l 498 912 m 80 393 b 373 716 80 570 179 716 b 665 393 567 716 665 570 l 665 299 l 166 299 l 166 266 b 382 47 167 127 238 47 b 616 100 424 47 526 55 l 645 39 b 383 -22 537 -14 417 -22 b 80 272 184 -22 80 91 m 579 409 b 373 647 579 544 508 647 b 167 409 238 647 167 544 l 167 359 l 579 359 "},"ệ":{"ha":736,"x_min":0,"x_max":0,"o":"m 433 912 l 364 981 l 295 912 l 231 912 l 334 1042 l 395 1042 l 498 912 m 80 393 b 373 716 80 570 179 716 b 665 393 567 716 665 570 l 665 299 l 166 299 l 166 266 b 382 47 167 127 238 47 b 616 100 424 47 526 55 l 645 39 b 383 -22 537 -14 417 -22 b 80 272 184 -22 80 91 m 579 409 b 373 647 579 544 508 647 b 167 409 238 647 167 544 l 167 359 l 579 359 m 327 -232 l 327 -159 l 402 -159 l 402 -232 "},"ë":{"ha":733,"x_min":0,"x_max":0,"o":"m 239 933 l 239 1007 l 314 1007 l 314 933 m 415 933 l 415 1007 l 490 1007 l 490 933 m 80 393 b 373 716 80 570 179 716 b 665 393 567 716 665 570 l 665 299 l 166 299 l 166 266 b 382 47 167 127 238 47 b 616 100 424 47 526 55 l 645 39 b 383 -22 537 -14 418 -22 b 80 272 184 -22 80 91 m 579 409 b 373 647 579 544 508 647 b 167 409 238 647 167 544 l 167 359 l 579 359 "},"ė":{"ha":736,"x_min":0,"x_max":0,"o":"m 327 932 l 327 1007 l 402 1007 l 402 932 m 80 393 b 373 716 80 570 179 716 b 665 393 567 716 665 570 l 665 299 l 166 299 l 166 266 b 382 47 167 127 238 47 b 616 100 424 47 526 55 l 645 39 b 383 -22 537 -14 417 -22 b 80 272 184 -22 80 91 m 579 409 b 373 647 579 544 508 647 b 167 409 238 647 167 544 l 167 359 l 579 359 "},"ẹ":{"ha":736,"x_min":0,"x_max":0,"o":"m 80 393 b 373 716 80 570 179 716 b 665 393 567 716 665 570 l 665 299 l 166 299 l 166 266 b 382 47 167 127 238 47 b 616 100 424 47 526 55 l 645 39 b 383 -22 537 -14 417 -22 b 80 272 184 -22 80 91 m 579 409 b 373 647 579 544 508 647 b 167 409 238 647 167 544 l 167 359 l 579 359 m 327 -232 l 327 -159 l 402 -159 l 402 -232 "},"è":{"ha":733,"x_min":0,"x_max":0,"o":"m 396 912 l 265 1042 l 361 1042 l 464 912 m 80 393 b 373 716 80 570 179 716 b 665 393 567 716 665 570 l 665 299 l 166 299 l 166 266 b 382 47 167 127 238 47 b 616 100 424 47 526 55 l 645 39 b 383 -22 537 -14 417 -22 b 80 272 184 -22 80 91 m 579 409 b 373 647 579 544 508 647 b 167 409 238 647 167 544 l 167 359 l 579 359 "},"ē":{"ha":736,"x_min":0,"x_max":0,"o":"m 161 933 l 161 1007 l 568 1007 l 568 933 m 80 393 b 373 716 80 570 179 716 b 665 393 567 716 665 570 l 665 299 l 166 299 l 166 266 b 382 47 167 127 238 47 b 616 100 424 47 526 55 l 645 39 b 383 -22 537 -14 417 -22 b 80 272 184 -22 80 91 m 579 409 b 373 647 579 544 508 647 b 167 409 238 647 167 544 l 167 359 l 579 359 "},"ę":{"ha":736,"x_min":0,"x_max":0,"o":"m 80 394 b 373 716 80 570 179 716 b 665 394 567 716 665 570 l 665 299 l 166 299 l 166 266 b 382 47 167 128 238 47 b 616 101 424 47 526 56 l 645 39 b 483 -11 591 13 532 -3 b 461 -60 466 -22 461 -40 b 658 -199 461 -161 495 -199 l 658 -249 b 410 -68 452 -249 410 -199 b 418 -21 410 -49 412 -33 b 383 -22 403 -22 391 -22 b 80 272 184 -22 80 91 m 579 409 b 373 647 579 544 508 647 b 167 410 238 647 167 544 l 167 360 l 579 360 "},"ẽ":{"ha":736,"x_min":0,"x_max":0,"o":"m 179 925 b 283 1043 200 984 225 1043 b 336 1026 302 1043 321 1035 l 402 983 b 440 970 414 975 428 970 b 491 1034 469 970 486 1011 l 550 1021 b 454 903 542 982 511 903 b 396 920 435 903 414 910 l 328 964 b 293 976 320 970 305 976 b 237 906 266 976 251 945 m 80 393 b 373 716 80 570 179 716 b 665 393 567 716 665 570 l 665 298 l 166 298 l 166 266 b 382 47 167 127 238 47 b 616 100 424 47 526 55 l 645 39 b 383 -22 537 -14 418 -22 b 80 272 184 -22 80 91 m 579 409 b 373 647 579 544 508 647 b 167 409 238 647 167 544 l 167 359 l 579 359 "},"f":{"ha":486,"x_min":0,"x_max":0,"o":"m 148 740 b 341 993 151 931 207 993 b 461 979 374 993 424 986 l 461 910 b 355 921 426 916 388 923 b 233 739 270 920 233 885 l 233 694 l 435 694 l 435 620 l 233 620 l 233 0 l 148 0 l 148 620 l 59 620 l 59 694 l 148 694 "},"g":{"ha":792,"x_min":0,"x_max":0,"o":"m 80 436 b 338 717 80 634 193 717 b 586 649 414 717 501 693 l 586 679 l 595 715 l 681 715 l 667 662 l 667 -28 b 402 -272 667 -212 552 -272 b 148 -218 342 -272 227 -251 l 172 -157 b 399 -203 249 -192 347 -203 b 581 -32 504 -203 581 -164 l 581 64 b 340 -1 496 22 410 -1 b 80 297 131 -1 80 151 m 582 578 b 354 647 499 624 421 647 b 164 432 241 647 164 582 l 164 300 b 344 71 164 180 201 71 b 582 139 411 71 496 95 "},"ğ":{"ha":792,"x_min":0,"x_max":0,"o":"m 579 1037 b 406 867 579 932 499 867 l 378 867 b 206 1037 285 867 206 932 l 270 1037 b 379 926 270 972 322 926 l 406 926 b 514 1037 462 926 514 972 m 80 436 b 338 717 80 634 193 717 b 586 649 414 717 501 693 l 586 679 l 595 715 l 681 715 l 667 662 l 667 -28 b 402 -272 667 -212 552 -272 b 148 -218 342 -272 227 -251 l 172 -157 b 399 -203 249 -192 347 -203 b 581 -32 504 -203 581 -164 l 581 64 b 340 -1 496 22 410 -1 b 80 297 131 -1 80 151 m 582 578 b 354 647 499 624 421 647 b 164 432 241 647 164 582 l 164 300 b 344 72 164 180 201 72 b 582 139 411 72 496 95 "},"ǧ":{"ha":792,"x_min":0,"x_max":0,"o":"m 361 907 l 259 1037 l 323 1037 l 392 968 l 461 1037 l 526 1037 l 423 907 m 80 436 b 338 717 80 634 193 717 b 586 649 414 717 501 693 l 586 679 l 595 715 l 681 715 l 667 662 l 667 -28 b 402 -272 667 -212 552 -272 b 148 -218 342 -272 227 -251 l 172 -157 b 399 -203 249 -192 347 -203 b 581 -32 504 -203 581 -164 l 581 64 b 340 -1 496 22 410 -1 b 80 297 131 -1 80 151 m 581 578 b 354 647 499 624 421 647 b 164 432 241 647 164 582 l 164 300 b 344 72 164 180 201 72 b 581 139 411 72 496 95 "},"ģ":{"ha":792,"x_min":0,"x_max":0,"o":"m 427 990 b 398 959 411 988 398 977 l 398 862 l 327 862 l 327 959 b 427 1044 327 1012 375 1046 m 80 436 b 338 717 80 634 193 717 b 586 649 414 717 501 693 l 586 679 l 595 715 l 681 715 l 667 661 l 667 -28 b 402 -272 667 -213 552 -272 b 148 -218 342 -272 227 -251 l 172 -157 b 399 -203 249 -192 347 -203 b 582 -32 504 -203 582 -164 l 582 64 b 340 -1 496 22 410 -1 b 80 297 131 -1 80 151 m 582 578 b 354 646 499 624 421 646 b 164 432 241 646 164 582 l 164 300 b 344 71 164 180 201 71 b 582 139 411 71 496 95 "},"ġ":{"ha":792,"x_min":0,"x_max":0,"o":"m 355 928 l 355 1002 l 430 1002 l 430 928 m 80 436 b 338 717 80 634 193 717 b 586 649 414 717 501 693 l 586 679 l 595 715 l 681 715 l 667 662 l 667 -28 b 402 -272 667 -212 552 -272 b 148 -218 342 -272 227 -251 l 172 -157 b 399 -203 249 -192 347 -203 b 582 -32 504 -203 582 -164 l 582 64 b 340 -1 496 22 410 -1 b 80 297 131 -1 80 151 m 582 578 b 354 647 499 624 421 647 b 164 432 241 647 164 582 l 164 300 b 344 72 164 180 201 72 b 582 139 411 72 496 95 "},"h":{"ha":821,"x_min":0,"x_max":0,"o":"m 202 651 b 464 716 290 698 385 716 b 722 444 634 716 722 604 l 722 0 l 636 0 l 636 444 b 464 642 636 563 577 641 b 202 571 386 644 290 623 l 202 0 l 117 0 l 117 972 l 202 972 "},"ħ":{"ha":847,"x_min":0,"x_max":0,"o":"m 475 878 l 475 811 l 235 811 l 235 651 b 497 716 323 698 419 716 b 755 444 667 716 755 604 l 755 0 l 670 0 l 670 444 b 497 642 670 563 611 641 b 235 571 419 644 323 623 l 235 0 l 150 0 l 150 811 l 23 811 l 23 878 l 150 878 l 150 972 l 235 972 l 235 878 "},"ḥ":{"ha":821,"x_min":0,"x_max":0,"o":"m 202 651 b 464 716 290 698 385 716 b 722 444 634 716 722 604 l 722 0 l 636 0 l 636 444 b 464 642 636 563 577 641 b 202 571 386 644 290 623 l 202 0 l 117 0 l 117 972 l 202 972 m 358 -236 l 358 -161 l 433 -161 l 433 -236 "},"i":{"ha":307,"x_min":0,"x_max":0,"o":"m 109 897 l 109 972 l 199 972 l 199 897 m 111 0 l 111 694 l 197 694 l 197 0 "},"ı":{"ha":297,"x_min":0,"x_max":0,"o":"m 111 0 l 111 694 l 197 694 l 197 0 "},"í":{"ha":297,"x_min":0,"x_max":0,"o":"m 54 912 l 157 1042 l 253 1042 l 123 912 m 111 0 l 111 694 l 197 694 l 197 0 "},"ǐ":{"ha":297,"x_min":0,"x_max":0,"o":"m 123 912 l 20 1042 l 85 1042 l 154 972 l 222 1042 l 287 1042 l 184 912 m 111 0 l 111 694 l 197 694 l 197 0 "},"î":{"ha":297,"x_min":0,"x_max":0,"o":"m 222 912 l 154 981 l 85 912 l 20 912 l 123 1042 l 184 1042 l 287 912 m 111 0 l 111 694 l 197 694 l 197 0 "},"ï":{"ha":297,"x_min":0,"x_max":0,"o":"m 28 933 l 28 1007 l 103 1007 l 103 933 m 205 933 l 205 1007 l 279 1007 l 279 933 m 111 0 l 111 694 l 197 694 l 197 0 "},"ḯ":{"ha":297,"x_min":0,"x_max":0,"o":"m 54 1042 l 157 1172 l 253 1172 l 123 1042 m 28 898 l 28 972 l 103 972 l 103 898 m 205 898 l 205 972 l 279 972 l 279 898 m 112 0 l 112 694 l 197 694 l 197 0 "},"ị":{"ha":307,"x_min":0,"x_max":0,"o":"m 108 897 l 108 972 l 197 972 l 197 897 m 110 0 l 110 694 l 195 694 l 195 0 m 115 -236 l 115 -161 l 190 -161 l 190 -236 "},"ì":{"ha":297,"x_min":0,"x_max":0,"o":"m 185 912 l 54 1042 l 150 1042 l 253 912 m 112 0 l 112 694 l 197 694 l 197 0 "},"ĳ":{"ha":650,"x_min":0,"x_max":0,"o":"m 109 897 l 109 972 l 199 972 l 199 897 m 453 897 l 453 972 l 543 972 l 543 897 m 540 -144 b 402 -271 540 -224 487 -271 b 299 -250 387 -271 342 -268 l 317 -190 b 384 -201 351 -201 378 -203 b 456 -129 430 -200 456 -172 l 456 695 l 540 695 m 111 0 l 111 694 l 197 694 l 197 0 "},"ī":{"ha":297,"x_min":0,"x_max":0,"o":"m -50 933 l -50 1007 l 357 1007 l 357 933 m 111 0 l 111 694 l 197 694 l 197 0 "},"į":{"ha":297,"x_min":0,"x_max":0,"o":"m 116 932 l 116 1007 l 191 1007 l 191 932 m 197 0 b 114 -51 127 0 114 -17 b 310 -190 114 -153 147 -190 l 310 -240 b 62 -60 104 -240 62 -190 b 132 20 62 -12 76 13 l 111 42 l 111 694 l 197 694 "},"ĩ":{"ha":297,"x_min":0,"x_max":0,"o":"m -32 925 b 72 1043 -11 984 14 1043 b 125 1026 91 1043 110 1035 l 191 983 b 229 970 203 975 217 970 b 280 1034 258 970 275 1011 l 339 1021 b 243 903 331 982 300 903 b 186 920 224 903 203 910 l 118 964 b 82 976 109 970 95 976 b 26 906 55 976 41 945 m 111 0 l 111 694 l 197 694 l 197 0 "},"j":{"ha":344,"x_min":0,"x_max":0,"o":"m 147 897 l 147 972 l 237 972 l 237 897 m 234 -144 b 95 -271 234 -224 181 -271 b -7 -250 81 -271 36 -268 l 11 -190 b 78 -201 45 -201 72 -203 b 149 -129 124 -200 149 -172 l 149 695 l 234 695 "},"k":{"ha":706,"x_min":0,"x_max":0,"o":"m 538 694 l 646 694 l 257 361 l 678 0 l 569 0 l 202 304 l 202 0 l 117 0 l 117 972 l 202 972 l 202 415 "},"ķ":{"ha":706,"x_min":0,"x_max":0,"o":"m 538 694 l 646 694 l 257 361 l 678 0 l 569 0 l 202 304 l 202 0 l 117 0 l 117 972 l 202 972 l 202 415 m 403 -208 b 304 -294 403 -261 355 -296 l 304 -240 b 332 -208 320 -237 332 -226 l 332 -112 l 403 -112 "},"l":{"ha":307,"x_min":0,"x_max":0,"o":"m 117 0 l 117 972 l 202 972 l 202 0 "},"ĺ":{"ha":307,"x_min":0,"x_max":0,"o":"m 60 1190 l 163 1319 l 259 1319 l 129 1190 m 117 0 l 117 972 l 202 972 l 202 0 "},"ľ":{"ha":463,"x_min":0,"x_max":0,"o":"m 117 0 l 117 972 l 202 972 l 202 0 m 408 866 b 289 767 408 804 350 764 l 289 832 b 318 866 306 836 318 847 l 318 972 l 408 972 "},"ḽ":{"ha":307,"x_min":0,"x_max":0,"o":"m 117 0 l 117 972 l 202 972 l 202 0 m 222 -236 l 153 -167 l 84 -236 l 19 -236 l 122 -106 l 183 -106 l 286 -236 "},"ļ":{"ha":307,"x_min":0,"x_max":0,"o":"m 117 0 l 117 972 l 202 972 l 202 0 m 202 -214 b 103 -299 202 -267 154 -301 l 103 -244 b 131 -214 119 -242 131 -232 l 131 -117 l 202 -117 "},"ŀ":{"ha":485,"x_min":0,"x_max":0,"o":"m 117 0 l 117 972 l 202 972 l 202 0 m 356 370 l 356 490 l 446 490 l 446 370 "},"ḷ":{"ha":307,"x_min":0,"x_max":0,"o":"m 117 0 l 117 972 l 202 972 l 202 0 m 118 -236 l 118 -161 l 193 -161 l 193 -236 "},"ł":{"ha":515,"x_min":0,"x_max":0,"o":"m 487 644 l 487 549 l 269 395 l 269 0 l 184 0 l 184 335 l 50 240 l 50 337 l 184 431 l 184 972 l 269 972 l 269 491 "},"m":{"ha":1153,"x_min":0,"x_max":0,"o":"m 204 647 b 432 716 262 686 354 716 b 595 635 513 716 564 684 b 845 716 657 682 764 716 b 1051 435 1019 716 1051 564 l 1051 0 l 966 0 l 966 435 b 832 642 966 529 955 642 b 622 574 759 642 672 612 b 638 435 636 530 638 480 l 638 0 l 554 0 l 554 435 b 420 642 554 529 543 642 b 210 575 346 642 256 611 l 210 0 l 125 0 l 125 629 l 108 694 l 194 694 "},"ḿ":{"ha":1153,"x_min":0,"x_max":0,"o":"m 493 912 l 595 1042 l 691 1042 l 561 912 m 204 647 b 432 716 262 686 354 716 b 595 635 513 716 564 684 b 845 716 657 682 764 716 b 1051 435 1019 716 1051 564 l 1051 0 l 966 0 l 966 435 b 832 642 966 529 955 642 b 622 574 759 642 672 612 b 638 435 636 530 638 480 l 638 0 l 554 0 l 554 435 b 420 642 554 529 543 642 b 210 575 346 642 256 611 l 210 0 l 125 0 l 125 629 l 108 694 l 194 694 "},"n":{"ha":833,"x_min":0,"x_max":0,"o":"m 205 643 b 481 716 296 696 400 716 b 731 444 646 716 731 601 l 731 0 l 646 0 l 646 444 b 473 643 646 563 587 641 b 211 571 396 644 299 623 l 211 0 l 126 0 l 126 624 l 108 694 l 194 694 "},"ń":{"ha":833,"x_min":0,"x_max":0,"o":"m 320 912 l 423 1042 l 519 1042 l 389 912 m 205 643 b 481 716 296 696 400 716 b 731 444 646 716 731 601 l 731 0 l 646 0 l 646 444 b 473 643 646 563 587 641 b 211 571 396 644 299 623 l 211 0 l 126 0 l 126 624 l 108 694 l 194 694 "},"ň":{"ha":833,"x_min":0,"x_max":0,"o":"m 388 912 l 286 1042 l 350 1042 l 419 972 l 488 1042 l 553 1042 l 450 912 m 205 643 b 481 716 296 696 400 716 b 731 444 646 716 731 601 l 731 0 l 646 0 l 646 444 b 473 643 646 563 587 641 b 211 571 396 644 299 623 l 211 0 l 126 0 l 126 624 l 108 694 l 194 694 "},"ṋ":{"ha":833,"x_min":0,"x_max":0,"o":"m 205 643 b 481 716 296 696 400 716 b 731 444 646 716 731 601 l 731 0 l 646 0 l 646 444 b 473 643 646 563 587 641 b 211 571 396 644 299 623 l 211 0 l 126 0 l 126 624 l 108 694 l 194 694 m 486 -232 l 417 -164 l 348 -232 l 283 -232 l 386 -103 l 448 -103 l 551 -232 "},"ņ":{"ha":833,"x_min":0,"x_max":0,"o":"m 205 643 b 481 716 296 696 400 716 b 731 444 646 716 731 601 l 731 0 l 646 0 l 646 444 b 473 643 646 563 587 641 b 211 571 396 644 299 623 l 211 0 l 126 0 l 126 624 l 108 694 l 194 694 m 466 -210 b 367 -294 466 -263 418 -297 l 367 -242 b 395 -210 383 -239 395 -228 l 395 -114 l 466 -114 "},"ṅ":{"ha":833,"x_min":0,"x_max":0,"o":"m 382 932 l 382 1007 l 457 1007 l 457 932 m 205 643 b 481 716 296 696 400 716 b 731 444 646 716 731 601 l 731 0 l 646 0 l 646 444 b 473 643 646 563 587 641 b 211 571 396 644 299 623 l 211 0 l 126 0 l 126 624 l 108 694 l 194 694 "},"ṇ":{"ha":833,"x_min":0,"x_max":0,"o":"m 205 643 b 481 716 296 696 400 716 b 731 444 646 716 731 601 l 731 0 l 646 0 l 646 444 b 473 643 646 563 587 641 b 211 571 396 644 299 623 l 211 0 l 126 0 l 126 624 l 108 694 l 194 694 m 382 -232 l 382 -158 l 457 -158 l 457 -232 "},"ŋ":{"ha":833,"x_min":0,"x_max":0,"o":"m 205 643 b 481 716 296 696 400 716 b 731 444 646 716 731 601 l 731 -144 b 592 -271 731 -224 678 -271 b 489 -250 577 -271 532 -268 l 507 -190 b 575 -201 541 -201 569 -203 b 646 -129 620 -200 646 -172 l 646 444 b 473 643 646 563 587 641 b 211 571 396 644 299 623 l 211 0 l 126 0 l 126 624 l 108 694 l 194 694 "},"ñ":{"ha":839,"x_min":0,"x_max":0,"o":"m 234 925 b 338 1043 254 984 280 1043 b 391 1026 357 1043 375 1035 l 456 983 b 495 970 468 975 483 970 b 545 1034 524 970 541 1011 l 605 1021 b 509 903 597 982 566 903 b 451 920 489 903 469 910 l 383 964 b 348 976 374 970 360 976 b 292 906 321 976 306 945 m 205 643 b 481 716 296 696 400 716 b 731 444 646 716 731 601 l 731 0 l 646 0 l 646 444 b 473 643 646 563 587 641 b 211 571 396 644 299 623 l 211 0 l 126 0 l 126 624 l 108 694 l 194 694 "},"o":{"ha":757,"x_min":0,"x_max":0,"o":"m 80 481 b 378 716 80 629 223 716 b 677 481 534 716 677 629 l 677 215 b 378 -22 677 69 536 -22 b 80 215 221 -22 80 69 m 592 481 b 378 642 592 585 492 642 b 165 481 265 642 165 585 l 165 215 b 378 52 165 112 264 52 b 592 215 493 52 592 112 "},"ó":{"ha":757,"x_min":0,"x_max":0,"o":"m 280 912 l 383 1042 l 478 1042 l 349 912 m 80 481 b 378 716 80 629 223 716 b 677 481 534 716 677 629 l 677 215 b 378 -22 677 69 536 -22 b 80 215 221 -22 80 69 m 592 481 b 378 642 592 585 492 642 b 165 481 265 642 165 585 l 165 215 b 378 52 165 112 264 52 b 592 215 493 52 592 112 "},"ǒ":{"ha":757,"x_min":0,"x_max":0,"o":"m 348 912 l 245 1042 l 310 1042 l 379 972 l 448 1042 l 513 1042 l 410 912 m 80 481 b 378 716 80 629 223 716 b 677 481 534 716 677 629 l 677 215 b 378 -22 677 69 536 -22 b 80 215 221 -22 80 69 m 592 481 b 378 642 592 585 492 642 b 165 481 265 642 165 585 l 165 215 b 378 52 165 112 264 52 b 592 215 493 52 592 112 "},"ô":{"ha":757,"x_min":0,"x_max":0,"o":"m 448 912 l 379 981 l 310 912 l 245 912 l 348 1042 l 410 1042 l 513 912 m 80 481 b 378 716 80 629 223 716 b 677 481 534 716 677 629 l 677 215 b 378 -22 677 69 536 -22 b 80 215 221 -22 80 69 m 592 481 b 378 642 592 585 492 642 b 165 481 265 642 165 585 l 165 215 b 378 52 165 112 264 52 b 592 215 493 52 592 112 "},"ộ":{"ha":757,"x_min":0,"x_max":0,"o":"m 445 912 l 376 981 l 307 912 l 243 912 l 345 1042 l 407 1042 l 510 912 m 80 481 b 378 716 80 629 223 716 b 677 481 534 716 677 629 l 677 215 b 378 -22 677 69 536 -22 b 80 215 221 -22 80 69 m 592 481 b 378 642 592 585 492 642 b 165 481 265 642 165 585 l 165 215 b 378 52 165 112 264 52 b 592 215 493 52 592 112 m 341 -236 l 341 -161 l 416 -161 l 416 -236 "},"ȫ":{"ha":757,"x_min":0,"x_max":0,"o":"m 176 1042 l 176 1116 l 583 1116 l 583 1042 m 254 898 l 254 972 l 328 972 l 328 898 m 430 898 l 430 972 l 505 972 l 505 898 m 80 481 b 378 716 80 629 223 716 b 677 481 534 716 677 629 l 677 215 b 378 -22 677 69 536 -22 b 80 215 221 -22 80 69 m 592 481 b 378 642 592 585 492 642 b 165 481 265 642 165 585 l 165 215 b 378 52 165 112 264 52 b 592 215 493 52 592 112 "},"ö":{"ha":757,"x_min":0,"x_max":0,"o":"m 254 933 l 254 1007 l 328 1007 l 328 933 m 430 933 l 430 1007 l 505 1007 l 505 933 m 80 481 b 378 716 80 630 223 716 b 677 481 534 716 677 630 l 677 215 b 378 -22 677 69 536 -22 b 80 215 221 -22 80 69 m 592 481 b 378 642 592 585 492 642 b 165 481 265 642 165 585 l 165 215 b 378 52 165 112 264 52 b 592 215 493 52 592 112 "},"ọ":{"ha":757,"x_min":0,"x_max":0,"o":"m 80 481 b 378 716 80 629 223 716 b 677 481 534 716 677 629 l 677 215 b 378 -22 677 69 536 -22 b 80 215 221 -22 80 69 m 592 481 b 378 642 592 585 492 642 b 165 481 265 642 165 585 l 165 215 b 378 52 165 112 264 52 b 592 215 493 52 592 112 m 341 -236 l 341 -161 l 416 -161 l 416 -236 "},"ò":{"ha":757,"x_min":0,"x_max":0,"o":"m 410 912 l 280 1042 l 375 1042 l 479 912 m 80 481 b 378 716 80 629 223 716 b 677 481 534 716 677 629 l 677 215 b 378 -22 677 69 536 -22 b 80 215 221 -22 80 69 m 592 481 b 378 642 592 585 492 642 b 165 481 265 642 165 585 l 165 215 b 378 52 165 112 264 52 b 592 215 493 52 592 112 "},"ő":{"ha":757,"x_min":0,"x_max":0,"o":"m 185 912 l 288 1042 l 383 1042 l 253 912 m 375 912 l 478 1042 l 573 1042 l 444 912 m 80 481 b 378 716 80 629 223 716 b 677 481 534 716 677 629 l 677 215 b 378 -22 677 69 536 -22 b 80 215 221 -22 80 69 m 592 481 b 378 642 592 585 492 642 b 165 481 265 642 165 585 l 165 215 b 378 52 165 112 264 52 b 592 215 493 52 592 112 "},"ō":{"ha":757,"x_min":0,"x_max":0,"o":"m 176 933 l 176 1007 l 583 1007 l 583 933 m 80 481 b 378 716 80 630 223 716 b 677 481 534 716 677 630 l 677 215 b 378 -22 677 69 536 -22 b 80 215 221 -22 80 69 m 592 481 b 378 642 592 585 492 642 b 165 481 265 642 165 585 l 165 215 b 378 52 165 112 264 52 b 592 215 493 52 592 112 "},"ṓ":{"ha":757,"x_min":0,"x_max":0,"o":"m 277 1042 l 380 1171 l 476 1171 l 346 1042 m 173 898 l 173 972 l 580 972 l 580 898 m 80 481 b 378 716 80 629 223 716 b 677 481 534 716 677 629 l 677 215 b 378 -22 677 69 536 -22 b 80 215 221 -22 80 69 m 592 481 b 378 642 592 585 492 642 b 165 481 265 642 165 585 l 165 215 b 378 52 165 112 264 52 b 592 215 493 52 592 112 "},"ṑ":{"ha":757,"x_min":0,"x_max":0,"o":"m 407 1042 l 277 1171 l 373 1171 l 476 1042 m 173 898 l 173 972 l 580 972 l 580 898 m 80 481 b 378 716 80 629 223 716 b 677 481 534 716 677 629 l 677 215 b 378 -22 677 69 536 -22 b 80 215 221 -22 80 69 m 592 481 b 378 642 592 585 492 642 b 165 481 265 642 165 585 l 165 215 b 378 52 165 112 264 52 b 592 215 493 52 592 112 "},"ø":{"ha":790,"x_min":0,"x_max":0,"o":"m 573 673 b 694 481 645 634 694 568 l 694 215 b 395 -22 694 69 552 -22 b 271 -2 351 -22 309 -15 l 241 -69 l 178 -69 l 218 21 b 97 215 146 62 97 129 l 97 481 b 395 716 97 630 240 716 b 520 696 438 716 481 709 l 550 764 l 613 764 m 182 215 b 250 92 182 162 209 120 l 489 628 b 395 642 460 638 428 642 b 182 481 281 642 182 585 m 609 481 b 541 603 609 535 582 576 l 302 66 b 395 52 330 57 362 52 b 609 215 510 52 609 112 "},"ǿ":{"ha":790,"x_min":0,"x_max":0,"o":"m 290 912 l 393 1042 l 488 1042 l 359 912 m 573 673 b 694 481 645 634 694 568 l 694 215 b 395 -22 694 69 553 -22 b 271 -2 351 -22 309 -15 l 241 -69 l 178 -69 l 218 21 b 97 215 146 62 97 129 l 97 481 b 395 716 97 630 240 716 b 520 696 438 716 481 709 l 550 764 l 613 764 m 182 215 b 250 92 182 162 209 120 l 489 628 b 395 642 460 638 428 642 b 182 481 281 642 182 585 m 609 481 b 541 603 609 535 582 576 l 302 66 b 395 52 330 57 362 52 b 609 215 510 52 609 112 "},"õ":{"ha":757,"x_min":0,"x_max":0,"o":"m 194 925 b 298 1043 214 984 240 1043 b 351 1026 317 1043 335 1035 l 416 983 b 455 970 428 975 443 970 b 505 1034 483 970 501 1011 l 565 1021 b 469 903 557 982 526 903 b 411 920 449 903 429 910 l 343 964 b 308 976 334 970 320 976 b 251 906 281 976 266 945 m 80 481 b 378 716 80 629 223 716 b 677 481 534 716 677 629 l 677 215 b 378 -22 677 69 536 -22 b 80 215 221 -22 80 69 m 592 481 b 378 642 592 585 492 642 b 165 481 265 642 165 585 l 165 215 b 378 52 165 112 264 52 b 592 215 493 52 592 112 "},"ṍ":{"ha":757,"x_min":0,"x_max":0,"o":"m 277 956 l 380 1086 l 476 1086 l 346 956 m 191 795 b 295 912 211 854 237 912 b 348 896 314 912 332 905 l 413 853 b 452 840 426 844 440 840 b 502 904 481 840 498 881 l 562 891 b 466 773 554 852 523 773 b 408 790 447 773 426 780 l 340 834 b 305 846 332 840 317 846 b 249 776 278 846 263 815 m 80 481 b 378 716 80 629 223 716 b 677 481 534 716 677 629 l 677 215 b 378 -22 677 69 536 -22 b 80 215 221 -22 80 69 m 592 481 b 378 642 592 585 492 642 b 165 481 265 642 165 585 l 165 215 b 378 52 165 112 264 52 b 592 215 493 52 592 112 "},"œ":{"ha":1301,"x_min":0,"x_max":0,"o":"m 101 481 b 399 716 101 629 244 716 b 670 561 523 716 636 660 b 919 716 712 653 795 716 b 1212 393 1113 716 1212 570 l 1212 299 l 713 299 l 713 266 b 928 47 713 127 784 47 b 1162 100 971 47 1073 55 l 1192 39 b 929 -22 1084 -14 964 -22 b 665 122 795 -22 707 30 b 399 -22 626 32 518 -22 b 101 215 242 -22 101 69 m 1125 409 b 919 647 1125 544 1054 647 b 713 409 785 647 713 544 l 713 359 l 1125 359 m 613 481 b 399 642 613 585 513 642 b 186 481 285 642 186 585 l 186 215 b 399 51 186 111 285 51 b 613 215 514 51 613 111 "},"p":{"ha":789,"x_min":0,"x_max":0,"o":"m 204 649 b 451 717 288 693 374 717 b 709 425 595 717 709 631 l 709 272 b 464 -24 709 107 644 -24 b 209 48 387 -24 303 -1 l 209 -250 l 124 -250 l 124 656 l 108 712 l 196 712 l 204 677 m 626 428 b 436 642 626 574 550 642 b 209 578 370 642 290 620 l 209 121 b 445 50 302 70 377 50 b 625 278 587 49 625 155 "},"þ":{"ha":729,"x_min":0,"x_max":0,"o":"m 193 685 b 424 716 271 703 368 716 b 693 435 604 716 693 590 l 693 259 b 424 -22 693 104 604 -22 b 193 10 368 -22 266 -8 l 193 -249 l 108 -249 l 108 972 l 193 972 m 608 435 b 424 643 608 556 547 643 b 193 609 365 643 258 628 l 193 85 b 424 52 258 66 365 52 b 608 259 547 52 608 139 "},"q":{"ha":793,"x_min":0,"x_max":0,"o":"m 81 426 b 340 718 81 632 195 718 b 587 649 416 718 503 693 l 587 677 l 595 713 l 682 713 l 667 657 l 667 -249 l 582 -249 l 582 49 b 327 -24 487 -1 403 -24 b 81 272 147 -24 81 107 m 582 579 b 355 643 500 621 421 643 b 165 429 240 643 165 575 l 165 278 b 346 50 165 155 203 50 b 582 122 413 50 488 70 "},"r":{"ha":569,"x_min":0,"x_max":0,"o":"m 210 641 b 453 716 309 697 398 715 b 547 710 484 718 525 714 l 545 636 b 454 643 497 643 473 643 b 216 573 402 643 320 628 l 216 0 l 131 0 l 131 627 l 108 716 l 192 716 "},"ŕ":{"ha":569,"x_min":0,"x_max":0,"o":"m 187 909 l 289 1038 l 385 1038 l 255 909 m 210 641 b 453 716 309 697 398 715 b 547 710 484 718 525 714 l 545 636 b 454 643 497 643 473 643 b 216 573 402 643 320 628 l 216 0 l 131 0 l 131 627 l 108 716 l 192 716 "},"ř":{"ha":569,"x_min":0,"x_max":0,"o":"m 255 909 l 152 1038 l 217 1038 l 286 969 l 355 1038 l 419 1038 l 316 909 m 210 641 b 453 716 309 697 398 715 b 547 710 484 718 525 714 l 545 636 b 454 643 497 643 473 643 b 216 573 402 643 320 628 l 216 0 l 131 0 l 131 627 l 108 716 l 192 716 "},"ŗ":{"ha":569,"x_min":0,"x_max":0,"o":"m 210 641 b 453 716 309 697 398 715 b 547 710 484 718 525 714 l 545 636 b 454 643 497 643 473 643 b 216 573 402 643 320 628 l 216 0 l 131 0 l 131 627 l 108 716 l 192 716 m 215 -214 b 115 -299 215 -267 167 -302 l 115 -245 b 143 -214 131 -242 143 -232 l 143 -117 l 215 -117 "},"s":{"ha":689,"x_min":0,"x_max":0,"o":"m 89 95 b 343 52 198 64 261 52 b 533 182 430 52 533 67 b 328 336 533 296 434 304 b 85 531 214 370 85 391 b 357 716 85 625 140 716 b 589 673 421 716 517 706 l 563 607 b 354 647 502 637 416 647 b 170 534 206 647 170 595 b 351 406 170 456 239 437 b 618 183 465 374 618 347 b 336 -22 618 -1 455 -22 b 69 23 246 -22 178 -8 "},"ś":{"ha":689,"x_min":0,"x_max":0,"o":"m 245 912 l 348 1042 l 444 1042 l 314 912 m 89 95 b 343 52 198 64 261 52 b 533 182 430 52 533 67 b 328 336 533 296 434 304 b 85 531 214 370 85 391 b 357 716 85 625 140 716 b 589 673 421 716 517 706 l 563 607 b 354 647 502 637 416 647 b 170 534 206 647 170 595 b 351 406 170 456 239 437 b 619 183 465 374 619 347 b 336 -22 619 -1 455 -22 b 69 23 246 -22 178 -8 "},"š":{"ha":689,"x_min":0,"x_max":0,"o":"m 313 912 l 211 1042 l 275 1042 l 344 972 l 413 1042 l 478 1042 l 375 912 m 89 95 b 343 52 198 64 261 52 b 533 182 430 52 533 67 b 328 336 533 296 434 304 b 85 531 214 370 85 391 b 357 716 85 625 140 716 b 589 673 421 716 517 706 l 563 607 b 354 647 502 637 416 647 b 170 534 206 647 170 595 b 351 406 170 456 239 437 b 618 183 465 374 618 347 b 336 -22 618 -1 455 -22 b 69 23 246 -22 178 -8 "},"ş":{"ha":689,"x_min":0,"x_max":0,"o":"m 89 95 b 343 52 198 64 261 52 b 533 182 430 52 533 67 b 328 335 533 296 434 304 b 85 531 214 370 85 391 b 357 716 85 625 140 716 b 589 673 421 716 517 706 l 563 607 b 354 647 502 637 416 647 b 170 534 206 647 170 595 b 351 406 170 456 239 437 b 618 183 465 374 618 347 b 366 -19 618 15 479 -14 b 335 -22 355 -21 345 -21 l 335 -60 l 367 -60 b 473 -154 452 -60 473 -108 b 216 -274 473 -269 416 -274 l 216 -229 b 414 -154 377 -229 414 -228 b 343 -103 414 -128 401 -103 l 287 -103 l 287 -21 b 69 23 218 -15 156 -1 "},"ș":{"ha":689,"x_min":0,"x_max":0,"o":"m 89 95 b 343 52 198 64 261 52 b 533 182 430 52 533 67 b 328 336 533 296 434 304 b 85 531 214 370 85 391 b 357 716 85 625 140 716 b 589 673 421 716 517 706 l 563 607 b 354 647 502 637 416 647 b 170 534 206 647 170 595 b 351 406 170 456 239 437 b 618 183 465 374 618 347 b 336 -22 618 -1 455 -22 b 69 23 246 -22 178 -8 m 392 -210 b 292 -294 392 -262 343 -297 l 292 -242 b 320 -210 308 -239 320 -228 l 320 -114 l 392 -114 "},"ṣ":{"ha":689,"x_min":0,"x_max":0,"o":"m 89 95 b 343 52 198 64 261 52 b 533 182 430 52 533 67 b 328 336 533 296 434 304 b 85 531 214 370 85 391 b 357 716 85 625 140 716 b 589 673 421 716 517 706 l 563 607 b 354 647 502 637 416 647 b 170 534 206 647 170 595 b 351 406 170 456 239 437 b 618 183 465 374 618 347 b 336 -22 618 -1 455 -22 b 69 23 246 -22 178 -8 m 307 -232 l 307 -158 l 382 -158 l 382 -232 "},"ß":{"ha":833,"x_min":0,"x_max":0,"o":"m 110 730 b 419 983 110 919 254 983 b 728 730 585 983 728 919 b 614 523 728 611 681 548 b 737 337 687 493 737 425 l 737 239 b 419 0 737 73 591 0 l 301 0 l 301 75 l 419 75 b 652 242 549 75 652 123 l 652 332 b 480 488 652 427 583 489 l 480 562 b 642 730 583 561 642 600 b 419 909 642 865 543 909 b 196 730 295 909 196 865 l 196 0 l 110 0 "},"t":{"ha":551,"x_min":0,"x_max":0,"o":"m 478 694 l 478 620 l 253 620 l 253 135 b 343 48 253 74 291 49 b 486 79 385 46 438 57 l 509 21 b 329 -21 442 -10 383 -21 b 168 120 238 -21 168 24 l 168 620 l 40 620 l 40 695 l 168 695 l 168 852 l 253 852 l 253 694 "},"ŧ":{"ha":551,"x_min":0,"x_max":0,"o":"m 509 21 b 329 -21 442 -10 383 -21 b 168 120 238 -21 168 24 l 168 386 l 45 386 l 45 449 l 168 449 l 168 620 l 40 620 l 40 694 l 168 694 l 168 852 l 253 852 l 253 694 l 478 694 l 478 620 l 253 620 l 253 449 l 468 449 l 468 386 l 253 386 l 253 136 b 343 49 253 75 291 50 b 486 79 385 46 438 58 "},"ť":{"ha":551,"x_min":0,"x_max":0,"o":"m 502 944 b 397 855 502 888 451 852 l 397 912 b 426 944 413 914 426 926 l 426 1042 l 502 1042 m 478 694 l 478 620 l 253 620 l 253 135 b 343 48 253 74 291 49 b 486 79 385 46 438 57 l 509 21 b 329 -21 442 -10 383 -21 b 168 120 238 -21 168 24 l 168 620 l 40 620 l 40 695 l 168 695 l 168 852 l 253 852 l 253 694 "},"ţ":{"ha":551,"x_min":0,"x_max":0,"o":"m 478 694 l 478 620 l 253 620 l 253 135 b 343 48 253 74 291 49 b 486 79 385 46 438 57 l 509 21 b 348 -18 453 -4 399 -17 b 322 -19 339 -19 330 -19 b 297 -18 313 -19 305 -19 l 297 -50 l 329 -50 b 436 -144 415 -50 436 -99 b 178 -264 436 -260 378 -264 l 178 -219 b 376 -144 339 -219 376 -218 b 305 -93 376 -118 364 -93 l 249 -93 l 249 -7 b 168 120 200 13 168 55 l 168 620 l 40 620 l 40 695 l 168 695 l 168 852 l 253 852 l 253 694 "},"ṱ":{"ha":551,"x_min":0,"x_max":0,"o":"m 478 694 l 478 620 l 253 620 l 253 135 b 343 48 253 74 291 49 b 486 79 385 46 438 57 l 509 21 b 329 -21 442 -10 383 -21 b 168 120 238 -21 168 24 l 168 620 l 40 620 l 40 695 l 168 695 l 168 852 l 253 852 l 253 694 m 331 -233 l 262 -163 l 193 -233 l 129 -233 l 232 -103 l 293 -103 l 396 -233 "},"ț":{"ha":551,"x_min":0,"x_max":0,"o":"m 478 694 l 478 620 l 253 620 l 253 135 b 343 48 253 74 291 49 b 486 79 385 46 438 57 l 509 21 b 329 -21 442 -10 383 -21 b 168 120 238 -21 168 24 l 168 620 l 40 620 l 40 695 l 168 695 l 168 852 l 253 852 l 253 694 m 312 -210 b 213 -295 312 -263 264 -298 l 213 -241 b 241 -210 229 -240 241 -228 l 241 -113 l 312 -113 "},"ṭ":{"ha":551,"x_min":0,"x_max":0,"o":"m 478 694 l 478 620 l 253 620 l 253 135 b 343 48 253 74 291 49 b 486 79 385 46 438 57 l 509 21 b 329 -21 442 -10 383 -21 b 168 120 238 -21 168 24 l 168 620 l 40 620 l 40 695 l 168 695 l 168 852 l 253 852 l 253 694 m 228 -233 l 228 -158 l 302 -158 l 302 -233 "},"ṯ":{"ha":551,"x_min":0,"x_max":0,"o":"m 478 694 l 478 620 l 253 620 l 253 135 b 343 48 253 74 291 49 b 486 79 385 46 438 57 l 509 21 b 329 -21 442 -10 383 -21 b 168 120 238 -21 168 24 l 168 620 l 40 620 l 40 695 l 168 695 l 168 852 l 253 852 l 253 694 m 61 -233 l 61 -159 l 468 -159 l 468 -233 "},"u":{"ha":828,"x_min":0,"x_max":0,"o":"m 725 0 l 640 0 l 628 51 b 354 -22 538 -1 434 -22 b 103 250 188 -22 103 92 l 103 694 l 188 694 l 188 250 b 360 52 188 131 247 53 b 622 123 437 50 535 71 l 622 694 l 707 694 l 707 70 "},"ú":{"ha":828,"x_min":0,"x_max":0,"o":"m 314 912 l 417 1042 l 512 1042 l 383 912 m 725 0 l 640 0 l 628 51 b 354 -22 538 -1 434 -22 b 103 250 188 -22 103 92 l 103 694 l 188 694 l 188 250 b 360 52 188 131 247 53 b 622 123 437 50 535 71 l 622 694 l 707 694 l 707 70 "},"ǔ":{"ha":828,"x_min":0,"x_max":0,"o":"m 382 912 l 279 1042 l 344 1042 l 413 972 l 482 1042 l 547 1042 l 444 912 m 725 0 l 640 0 l 628 51 b 354 -22 538 -1 434 -22 b 103 250 188 -22 103 92 l 103 694 l 188 694 l 188 250 b 360 52 188 131 247 53 b 622 123 437 50 535 71 l 622 694 l 707 694 l 707 70 "},"û":{"ha":828,"x_min":0,"x_max":0,"o":"m 482 912 l 413 981 l 344 912 l 279 912 l 382 1042 l 444 1042 l 547 912 m 725 0 l 640 0 l 628 51 b 354 -22 538 -1 434 -22 b 103 250 188 -22 103 92 l 103 694 l 188 694 l 188 250 b 360 52 188 131 247 53 b 622 123 437 50 535 71 l 622 694 l 707 694 l 707 70 "},"ü":{"ha":828,"x_min":0,"x_max":0,"o":"m 288 933 l 288 1007 l 362 1007 l 362 933 m 464 933 l 464 1007 l 538 1007 l 538 933 m 725 0 l 640 0 l 628 51 b 354 -22 538 -1 434 -22 b 103 250 188 -22 103 92 l 103 694 l 188 694 l 188 250 b 360 52 188 131 247 53 b 622 123 437 50 535 71 l 622 694 l 707 694 l 707 70 "},"ǘ":{"ha":828,"x_min":0,"x_max":0,"o":"m 314 1042 l 417 1171 l 512 1171 l 383 1042 m 288 898 l 288 972 l 362 972 l 362 898 m 464 898 l 464 972 l 538 972 l 538 898 m 725 0 l 640 0 l 628 51 b 354 -22 538 -1 434 -22 b 103 250 188 -22 103 92 l 103 694 l 188 694 l 188 250 b 360 52 188 131 247 53 b 622 123 437 50 535 71 l 622 694 l 707 694 l 707 70 "},"ǚ":{"ha":828,"x_min":0,"x_max":0,"o":"m 382 1042 l 279 1171 l 344 1171 l 413 1102 l 482 1171 l 547 1171 l 444 1042 m 288 898 l 288 972 l 362 972 l 362 898 m 464 898 l 464 972 l 538 972 l 538 898 m 725 0 l 640 0 l 628 51 b 354 -22 538 -1 434 -22 b 103 250 188 -22 103 92 l 103 694 l 188 694 l 188 250 b 360 52 188 131 247 53 b 622 123 437 50 535 71 l 622 694 l 707 694 l 707 70 "},"ǜ":{"ha":828,"x_min":0,"x_max":0,"o":"m 444 1042 l 314 1172 l 409 1172 l 512 1042 m 288 898 l 288 972 l 362 972 l 362 898 m 464 898 l 464 972 l 538 972 l 538 898 m 725 0 l 640 0 l 628 51 b 354 -22 538 -1 434 -22 b 103 250 188 -22 103 92 l 103 694 l 188 694 l 188 250 b 360 52 188 131 247 53 b 622 123 437 50 535 71 l 622 694 l 707 694 l 707 70 "},"ǖ":{"ha":828,"x_min":0,"x_max":0,"o":"m 209 1042 l 209 1116 l 617 1116 l 617 1042 m 288 898 l 288 972 l 362 972 l 362 898 m 464 898 l 464 972 l 538 972 l 538 898 m 725 0 l 640 0 l 628 51 b 354 -22 538 -1 434 -22 b 103 250 188 -22 103 92 l 103 694 l 188 694 l 188 250 b 360 52 188 131 247 53 b 622 123 437 50 535 71 l 622 694 l 707 694 l 707 70 "},"ụ":{"ha":828,"x_min":0,"x_max":0,"o":"m 725 0 l 640 0 l 628 51 b 354 -22 538 -1 434 -22 b 103 250 188 -22 103 92 l 103 694 l 188 694 l 188 250 b 360 52 188 131 247 53 b 622 123 437 50 535 71 l 622 694 l 707 694 l 707 70 m 348 -236 l 348 -161 l 423 -161 l 423 -236 "},"ù":{"ha":828,"x_min":0,"x_max":0,"o":"m 444 912 l 314 1042 l 409 1042 l 512 912 m 725 0 l 640 0 l 628 51 b 354 -22 538 -1 434 -22 b 103 250 188 -22 103 92 l 103 694 l 188 694 l 188 250 b 360 52 188 131 247 53 b 622 123 437 50 535 71 l 622 694 l 707 694 l 707 70 "},"ű":{"ha":828,"x_min":0,"x_max":0,"o":"m 219 912 l 322 1042 l 417 1042 l 287 912 m 409 912 l 512 1042 l 607 1042 l 478 912 m 725 0 l 640 0 l 628 51 b 354 -22 538 -1 434 -22 b 103 250 188 -22 103 92 l 103 694 l 188 694 l 188 250 b 360 52 188 131 247 53 b 622 123 437 50 535 71 l 622 694 l 707 694 l 707 70 "},"ū":{"ha":828,"x_min":0,"x_max":0,"o":"m 209 933 l 209 1007 l 617 1007 l 617 933 m 725 0 l 640 0 l 628 51 b 354 -22 538 -1 434 -22 b 103 250 188 -22 103 92 l 103 694 l 188 694 l 188 250 b 360 52 188 131 247 53 b 622 123 437 50 535 71 l 622 694 l 707 694 l 707 70 "},"ų":{"ha":828,"x_min":0,"x_max":0,"o":"m 722 0 l 702 -21 b 607 -83 632 -21 607 -39 b 803 -221 607 -183 640 -221 l 803 -271 b 555 -90 597 -271 555 -222 b 640 -1 555 -36 573 -8 l 628 51 b 354 -22 538 -1 434 -22 b 103 250 188 -22 103 92 l 103 694 l 188 694 l 188 250 b 360 52 188 131 247 53 b 622 123 437 50 535 71 l 622 694 l 707 694 l 707 70 "},"ů":{"ha":828,"x_min":0,"x_max":0,"o":"m 412 1063 b 550 925 489 1063 550 1001 b 412 789 550 849 489 789 b 276 925 336 789 276 849 b 412 1063 276 1001 336 1063 m 412 1005 b 334 925 369 1005 334 969 b 412 846 334 881 369 846 b 493 925 457 846 493 881 b 412 1005 493 969 457 1005 m 725 0 l 640 0 l 628 51 b 354 -22 538 -1 434 -22 b 103 250 188 -22 103 92 l 103 694 l 188 694 l 188 250 b 360 52 188 131 247 53 b 622 123 437 50 535 71 l 622 694 l 707 694 l 707 70 "},"ũ":{"ha":828,"x_min":0,"x_max":0,"o":"m 228 925 b 332 1043 248 984 273 1043 b 384 1026 351 1043 369 1035 l 450 983 b 489 970 462 975 477 970 b 539 1034 517 970 534 1011 l 599 1021 b 503 903 591 982 559 903 b 445 920 483 903 463 910 l 377 964 b 342 976 368 970 354 976 b 285 906 315 976 300 945 m 725 0 l 640 0 l 628 51 b 354 -22 538 -1 434 -22 b 103 250 188 -22 103 92 l 103 694 l 188 694 l 188 250 b 360 52 188 131 247 53 b 622 123 437 50 535 71 l 622 694 l 707 694 l 707 70 "},"v":{"ha":725,"x_min":0,"x_max":0,"o":"m 318 0 l 38 694 l 129 694 l 361 98 l 596 694 l 687 694 l 406 0 "},"w":{"ha":1050,"x_min":0,"x_max":0,"o":"m 716 0 l 525 563 l 335 0 l 243 0 l 38 694 l 126 694 l 291 115 l 483 694 l 567 694 l 759 115 l 924 694 l 1012 694 l 807 0 "},"ẃ":{"ha":1050,"x_min":0,"x_max":0,"o":"m 425 912 l 528 1042 l 624 1042 l 494 912 m 716 0 l 525 563 l 335 0 l 243 0 l 38 694 l 126 694 l 291 115 l 483 694 l 567 694 l 759 115 l 924 694 l 1012 694 l 807 0 "},"ŵ":{"ha":1050,"x_min":0,"x_max":0,"o":"m 593 912 l 524 981 l 456 912 l 391 912 l 494 1042 l 555 1042 l 658 912 m 716 0 l 525 563 l 335 0 l 243 0 l 38 694 l 126 694 l 291 115 l 483 694 l 567 694 l 759 115 l 924 694 l 1012 694 l 807 0 "},"ẅ":{"ha":1050,"x_min":0,"x_max":0,"o":"m 399 933 l 399 1007 l 474 1007 l 474 933 m 575 933 l 575 1007 l 650 1007 l 650 933 m 716 0 l 525 563 l 335 0 l 243 0 l 38 694 l 126 694 l 291 115 l 483 694 l 567 694 l 759 115 l 924 694 l 1012 694 l 807 0 "},"ẁ":{"ha":1050,"x_min":0,"x_max":0,"o":"m 556 912 l 425 1042 l 521 1042 l 624 912 m 716 0 l 525 563 l 335 0 l 243 0 l 38 694 l 126 694 l 291 115 l 483 694 l 567 694 l 759 115 l 924 694 l 1012 694 l 807 0 "},"x":{"ha":781,"x_min":0,"x_max":0,"o":"m 742 0 l 641 0 l 390 289 l 141 0 l 38 0 l 339 347 l 38 694 l 141 694 l 391 405 l 641 694 l 743 694 l 441 348 "},"y":{"ha":760,"x_min":0,"x_max":0,"o":"m 365 -118 b 201 -237 322 -215 265 -237 b 104 -219 180 -237 155 -236 l 124 -160 b 197 -172 150 -167 181 -172 b 291 -87 236 -171 262 -157 l 340 26 l 38 694 l 130 694 l 381 121 l 629 694 l 722 694 "},"ý":{"ha":760,"x_min":0,"x_max":0,"o":"m 277 912 l 380 1042 l 476 1042 l 346 912 m 365 -118 b 201 -237 322 -215 265 -237 b 104 -219 180 -237 155 -236 l 124 -160 b 197 -172 150 -167 181 -172 b 291 -87 236 -171 262 -157 l 340 26 l 38 694 l 130 694 l 381 121 l 629 694 l 722 694 "},"ŷ":{"ha":760,"x_min":0,"x_max":0,"o":"m 445 912 l 376 981 l 307 912 l 243 912 l 345 1042 l 407 1042 l 510 912 m 365 -118 b 201 -237 322 -215 265 -237 b 104 -219 180 -237 155 -236 l 124 -160 b 197 -172 150 -167 181 -172 b 291 -87 236 -171 262 -157 l 340 26 l 38 694 l 130 694 l 381 121 l 629 694 l 722 694 "},"ÿ":{"ha":760,"x_min":0,"x_max":0,"o":"m 251 933 l 251 1007 l 326 1007 l 326 933 m 427 933 l 427 1007 l 502 1007 l 502 933 m 365 -118 b 201 -237 322 -215 265 -237 b 104 -219 180 -237 155 -236 l 124 -160 b 197 -172 150 -167 181 -172 b 291 -87 236 -171 262 -157 l 340 26 l 38 694 l 130 694 l 381 121 l 629 694 l 722 694 "},"ỳ":{"ha":760,"x_min":0,"x_max":0,"o":"m 407 912 l 277 1042 l 373 1042 l 476 912 m 365 -118 b 201 -237 322 -215 265 -237 b 104 -219 180 -237 155 -236 l 124 -160 b 197 -172 150 -167 181 -172 b 291 -87 236 -171 262 -157 l 340 26 l 38 694 l 130 694 l 381 121 l 629 694 l 722 694 "},"z":{"ha":661,"x_min":0,"x_max":0,"o":"m 174 74 l 600 74 l 600 0 l 61 0 l 61 56 l 474 620 l 91 620 l 91 694 l 588 694 l 588 638 "},"ź":{"ha":661,"x_min":0,"x_max":0,"o":"m 230 912 l 333 1042 l 429 1042 l 299 912 m 174 74 l 600 74 l 600 0 l 61 0 l 61 56 l 474 620 l 91 620 l 91 694 l 588 694 l 588 638 "},"ž":{"ha":661,"x_min":0,"x_max":0,"o":"m 299 912 l 196 1042 l 260 1042 l 329 972 l 398 1042 l 463 1042 l 360 912 m 174 74 l 600 74 l 600 0 l 61 0 l 61 56 l 474 620 l 91 620 l 91 694 l 588 694 l 588 638 "},"ż":{"ha":661,"x_min":0,"x_max":0,"o":"m 292 932 l 292 1007 l 367 1007 l 367 932 m 174 74 l 600 74 l 600 0 l 61 0 l 61 56 l 474 620 l 91 620 l 91 694 l 588 694 l 588 638 "},"ẓ":{"ha":661,"x_min":0,"x_max":0,"o":"m 174 74 l 600 74 l 600 0 l 61 0 l 61 56 l 474 620 l 91 620 l 91 694 l 588 694 l 588 638 m 289 -236 l 289 -161 l 364 -161 l 364 -236 "},"ﬁ":{"ha":776,"x_min":0,"x_max":0,"o":"m 160 740 b 353 993 162 931 218 993 b 473 979 385 993 435 986 l 473 910 b 367 921 438 916 399 923 b 245 739 282 920 245 885 l 245 694 l 673 694 l 673 0 l 587 0 l 587 620 l 245 620 l 245 0 l 160 0 l 160 620 l 70 620 l 70 694 l 160 694 m 587 832 l 587 964 l 673 964 l 673 832 "},"ﬂ":{"ha":785,"x_min":0,"x_max":0,"o":"m 160 740 b 353 993 162 931 218 993 b 455 983 382 993 423 988 l 676 983 l 676 0 l 591 0 l 591 910 l 473 910 b 367 921 438 916 399 923 b 245 739 282 920 245 885 l 245 694 l 447 694 l 447 620 l 245 620 l 245 0 l 160 0 l 160 620 l 70 620 l 70 694 l 160 694 "},"ª":{"ha":572,"x_min":0,"x_max":0,"o":"m 113 850 b 285 889 167 875 238 889 b 461 725 384 889 461 847 l 461 467 l 473 421 l 406 421 l 399 447 b 234 407 354 420 283 407 b 86 548 106 407 86 490 b 275 694 86 680 168 694 b 390 686 311 694 355 691 l 390 734 b 281 836 390 810 345 836 b 132 801 249 836 181 824 m 393 632 b 281 645 361 639 314 645 b 155 549 209 645 155 639 b 248 465 155 511 168 465 b 393 499 287 465 355 477 "},"º":{"ha":590,"x_min":0,"x_max":0,"o":"m 99 732 b 295 888 99 827 192 888 b 493 732 399 888 493 827 l 493 564 b 295 406 493 468 399 406 b 99 564 192 406 99 468 m 421 732 b 295 826 421 793 365 826 b 170 732 227 826 170 793 l 170 564 b 295 468 170 502 227 468 b 421 564 364 468 421 502 "},"Δ":{"ha":1157,"x_min":0,"x_max":0,"o":""},"Ω":{"ha":1157,"x_min":0,"x_max":0,"o":""},"μ":{"ha":1157,"x_min":0,"x_max":0,"o":""},"π":{"ha":167,"x_min":0,"x_max":0,"o":""},"⁄":{"ha":597,"x_min":0,"x_max":0,"o":"m 32 -24 l 486 995 l 567 995 l 113 -24 "},"½":{"ha":1188,"x_min":0,"x_max":0,"o":"m 255 -24 l 710 995 l 793 995 l 338 -24 m 217 373 l 217 906 l 90 887 l 81 947 l 241 972 l 288 972 l 288 373 m 744 572 b 933 613 789 591 866 613 b 1117 435 1061 613 1117 543 b 1052 310 1117 380 1097 342 b 848 186 996 271 895 246 b 815 60 826 153 817 114 l 1118 60 l 1118 0 l 742 0 b 783 214 742 122 746 158 b 1003 354 830 286 953 323 b 1045 435 1031 372 1045 402 b 928 550 1045 509 1010 550 b 762 511 883 550 811 530 "},"¼":{"ha":1128,"x_min":0,"x_max":0,"o":"m 253 -24 l 708 995 l 791 995 l 336 -24 m 215 373 l 215 906 l 88 887 l 79 947 l 239 972 l 286 972 l 286 373 m 694 172 l 905 172 l 905 219 l 913 376 l 973 376 l 973 172 l 1057 172 l 1057 111 l 973 111 l 973 0 l 905 0 l 905 111 l 613 111 l 613 154 l 773 606 l 842 585 "},"¾":{"ha":1258,"x_min":0,"x_max":0,"o":"m 378 -24 l 832 995 l 915 995 l 460 -24 m 72 937 b 256 973 130 956 196 973 b 453 804 397 973 453 916 b 397 672 453 743 434 699 b 464 522 446 641 464 583 b 257 346 464 373 374 346 b 67 378 196 346 144 354 l 83 432 b 257 406 157 412 201 406 b 392 522 337 406 392 427 b 299 640 392 584 368 640 l 128 640 l 128 702 l 299 702 b 382 804 355 702 382 738 b 256 914 382 878 347 914 b 81 882 204 914 144 900 m 819 172 l 1030 172 l 1030 221 l 1037 376 l 1098 376 l 1098 172 l 1181 172 l 1181 111 l 1098 111 l 1098 0 l 1030 0 l 1030 111 l 738 111 l 738 154 l 898 606 l 966 585 "},"⅛":{"ha":1199,"x_min":0,"x_max":0,"o":"m 246 -24 l 701 995 l 783 995 l 328 -24 m 207 373 l 207 906 l 80 887 l 71 947 l 231 972 l 279 972 l 279 373 m 708 208 b 773 324 708 259 733 302 b 714 451 737 343 714 384 b 913 619 714 576 808 619 b 1112 451 1017 619 1112 576 b 1052 324 1112 384 1089 343 b 1117 208 1092 302 1117 259 l 1117 157 b 919 -1 1117 47 1027 -1 b 708 157 810 -1 708 47 m 961 356 b 1043 451 1009 356 1043 379 b 913 557 1043 531 987 557 b 782 451 838 557 782 531 b 865 356 782 379 816 356 m 863 294 b 777 208 813 294 777 258 l 777 157 b 913 60 777 88 834 60 b 1049 157 991 60 1049 88 l 1049 208 b 963 294 1049 258 1012 294 "},"⅜":{"ha":1349,"x_min":0,"x_max":0,"o":"m 395 -24 l 849 995 l 932 995 l 477 -24 m 89 937 b 273 974 147 956 212 974 b 469 804 413 974 469 916 b 413 672 469 743 451 699 b 481 522 463 642 481 583 b 274 347 481 373 391 347 b 84 378 213 347 161 354 l 99 432 b 274 407 174 412 218 407 b 409 522 354 407 409 427 b 316 640 409 584 385 640 l 145 640 l 145 702 l 316 702 b 398 804 372 702 398 739 b 273 914 398 878 364 914 b 98 882 221 914 161 900 m 857 208 b 923 324 857 259 882 303 b 863 451 886 343 863 384 b 1062 619 863 576 957 619 b 1261 451 1167 619 1261 576 b 1201 324 1261 384 1238 343 b 1267 208 1241 303 1267 259 l 1267 157 b 1068 -1 1267 47 1177 -1 b 857 157 960 -1 857 47 m 1110 356 b 1193 451 1159 356 1193 379 b 1062 557 1193 531 1137 557 b 932 451 988 557 932 531 b 1014 356 932 379 966 356 m 1012 294 b 926 208 963 294 926 258 l 926 157 b 1062 60 926 88 984 60 b 1198 157 1141 60 1198 88 l 1198 208 b 1113 294 1198 258 1161 294 "},"⅝":{"ha":1322,"x_min":0,"x_max":0,"o":"m 370 -24 l 825 995 l 907 995 l 452 -24 m 174 912 l 167 749 b 255 753 206 752 229 753 b 442 559 370 753 442 707 b 238 366 442 380 343 366 b 71 394 204 366 157 366 l 89 453 b 238 426 168 426 206 426 b 375 560 318 426 375 437 b 254 694 375 664 331 694 b 98 688 203 694 171 693 l 109 973 l 413 973 l 413 912 m 832 207 b 897 323 832 259 857 302 b 838 450 861 343 838 384 b 1037 618 838 575 932 618 b 1236 450 1141 618 1236 575 b 1176 323 1236 383 1212 343 b 1241 207 1216 302 1241 259 l 1241 157 b 1043 -2 1241 46 1151 -2 b 832 157 934 -2 832 46 m 1085 355 b 1167 450 1133 355 1167 378 b 1037 556 1167 531 1111 556 b 906 450 962 556 906 531 b 989 355 906 378 940 355 m 987 293 b 901 207 937 293 901 257 l 901 157 b 1037 59 901 88 958 59 b 1173 157 1115 59 1173 88 l 1173 207 b 1087 293 1173 257 1136 293 "},"⅞":{"ha":1193,"x_min":0,"x_max":0,"o":"m 241 -24 l 696 995 l 778 995 l 323 -24 m 460 925 b 242 473 352 838 242 684 l 242 379 l 176 379 l 176 473 b 357 912 176 668 262 816 l 71 912 l 71 972 l 460 972 m 703 208 b 768 324 703 259 727 303 b 708 451 731 343 708 384 b 907 619 708 576 803 619 b 1106 451 1012 619 1106 576 b 1046 324 1106 384 1083 343 b 1112 208 1087 303 1112 259 l 1112 157 b 914 -1 1112 47 1022 -1 b 703 157 805 -1 703 47 m 956 356 b 1038 451 1004 356 1038 379 b 907 557 1038 531 982 557 b 777 451 833 557 777 531 b 860 356 777 379 811 356 m 857 294 b 771 208 808 294 771 258 l 771 157 b 907 60 771 88 829 60 b 1044 157 986 60 1044 88 l 1044 208 b 958 294 1044 258 1006 294 "},"¹":{"ha":340,"x_min":0,"x_max":0,"o":"m 162 375 l 162 908 l 35 888 l 26 948 l 186 974 l 234 974 l 234 375 "},"²":{"ha":529,"x_min":0,"x_max":0,"o":"m 89 933 b 278 974 134 952 211 974 b 462 796 406 974 462 904 b 397 670 462 741 442 703 b 193 547 341 631 240 607 b 160 421 171 514 162 475 l 463 421 l 463 361 l 87 361 b 128 574 87 482 91 518 b 348 715 176 646 298 683 b 390 796 377 733 390 763 b 273 911 390 870 355 911 b 107 872 228 911 156 891 "},"³":{"ha":553,"x_min":0,"x_max":0,"o":"m 63 937 b 246 973 120 956 186 973 b 443 804 387 973 443 916 b 387 672 443 743 424 699 b 455 522 437 641 455 583 b 248 346 455 373 365 346 b 58 378 186 346 135 354 l 73 432 b 248 406 147 412 192 406 b 383 522 328 406 383 427 b 289 640 383 584 359 640 l 119 640 l 119 702 l 289 702 b 372 804 346 702 372 738 b 246 914 372 878 338 914 b 72 882 195 914 135 900 "},"*":{"ha":697,"x_min":0,"x_max":0,"o":"m 618 816 l 638 744 l 417 672 l 559 476 l 492 433 l 348 628 l 206 432 l 138 476 l 280 672 l 59 744 l 80 817 l 307 743 l 307 995 l 391 995 l 391 743 "},"\\":{"ha":601,"x_min":0,"x_max":0,"o":"m 471 0 l 39 972 l 129 972 l 561 0 "},"•":{"ha":503,"x_min":0,"x_max":0,"o":"m 252 584 b 413 428 340 584 413 511 b 252 271 413 344 340 271 b 90 428 163 271 90 344 b 252 584 90 511 163 584 "},":":{"ha":218,"x_min":0,"x_max":0,"o":"m 68 575 l 68 694 l 158 694 l 158 575 m 68 0 l 68 120 l 158 120 l 158 0 "},",":{"ha":282,"x_min":0,"x_max":0,"o":"m 194 -7 b 75 -107 194 -69 136 -110 l 75 -42 b 104 -7 92 -37 104 -26 l 104 99 l 194 99 "},"…":{"ha":714,"x_min":0,"x_max":0,"o":"m 108 0 l 108 120 l 198 120 l 198 0 m 313 0 l 313 120 l 403 120 l 403 0 m 518 0 l 518 120 l 608 120 l 608 0 "},"!":{"ha":260,"x_min":0,"x_max":0,"o":"m 87 247 l 87 972 l 173 972 l 173 247 m 85 0 l 85 116 l 176 116 l 176 0 "},"¡":{"ha":258,"x_min":0,"x_max":0,"o":"m 84 606 l 84 722 l 175 722 l 175 606 m 86 -250 l 86 475 l 172 475 l 172 -250 "},"#":{"ha":800,"x_min":0,"x_max":0,"o":"m 735 676 l 735 605 l 601 605 l 548 354 l 735 354 l 735 283 l 533 283 l 473 0 l 391 0 l 450 283 l 262 283 l 202 0 l 120 0 l 179 283 l 68 283 l 68 354 l 195 354 l 249 605 l 68 605 l 68 676 l 264 676 l 326 969 l 408 969 l 346 676 l 535 676 l 597 969 l 679 969 l 617 676 m 276 354 l 466 354 l 520 605 l 330 605 "},".":{"ha":297,"x_min":0,"x_max":0,"o":"m 108 -3 l 108 117 l 198 117 l 198 -3 "},"·":{"ha":297,"x_min":0,"x_max":0,"o":"m 108 370 l 108 490 l 198 490 l 198 370 "},"?":{"ha":639,"x_min":0,"x_max":0,"o":"m 36 969 b 292 996 65 975 193 996 b 590 776 453 996 587 937 l 590 750 b 462 553 590 662 538 594 l 360 501 b 261 346 300 470 261 420 l 261 247 l 175 247 l 175 346 b 319 568 175 443 222 518 l 421 620 b 505 750 468 644 505 692 l 505 775 b 292 921 504 884 411 921 b 43 894 206 921 52 896 m 173 0 l 173 116 l 264 116 l 264 0 "},"¿":{"ha":639,"x_min":0,"x_max":0,"o":"m 375 621 l 375 737 l 466 737 l 466 621 m 463 392 b 320 169 463 294 417 219 l 218 118 b 134 -12 171 94 134 45 l 134 -37 b 347 -183 135 -146 228 -183 b 596 -157 432 -183 586 -158 l 603 -232 b 347 -258 573 -237 446 -258 b 48 -37 185 -258 51 -200 l 48 -12 b 177 184 48 75 101 143 l 279 236 b 378 392 339 268 378 317 l 378 490 l 463 490 "},"\"":{"ha":469,"x_min":0,"x_max":0,"o":"m 108 853 l 108 1042 l 198 1042 l 198 853 m 275 853 l 275 1042 l 364 1042 l 364 853 "},"'":{"ha":297,"x_min":0,"x_max":0,"o":"m 108 853 l 108 1042 l 198 1042 l 198 853 "},";":{"ha":229,"x_min":0,"x_max":0,"o":"m 68 575 l 68 694 l 158 694 l 158 575 m 158 -7 b 39 -107 158 -69 100 -110 l 39 -42 b 69 -7 56 -37 69 -26 l 69 99 l 158 99 "},"/":{"ha":603,"x_min":0,"x_max":0,"o":"m 40 0 l 474 972 l 564 972 l 130 0 "},"_":{"ha":872,"x_min":0,"x_max":0,"o":"m 108 -239 l 108 -164 l 764 -164 l 764 -239 "},"{":{"ha":542,"x_min":0,"x_max":0,"o":"m 185 766 b 379 1028 185 976 241 1028 b 499 1012 418 1028 464 1020 l 499 934 b 403 949 466 943 430 949 b 385 948 396 949 390 949 b 270 768 302 946 270 909 l 270 638 b 192 417 270 512 245 444 b 270 203 244 388 270 322 l 270 71 b 385 -110 270 -71 302 -108 b 403 -111 390 -111 396 -111 b 499 -96 430 -111 466 -105 l 499 -175 b 379 -190 464 -182 418 -190 b 185 73 241 -190 185 -139 l 185 203 b 54 378 185 344 149 375 l 54 455 b 185 638 151 458 185 490 "},"}":{"ha":542,"x_min":0,"x_max":0,"o":"m 54 1012 b 174 1028 89 1020 135 1028 b 368 765 312 1028 368 976 l 368 637 b 499 454 368 490 402 457 l 499 378 b 368 203 404 375 368 344 l 368 72 b 174 -190 368 -139 312 -190 b 54 -175 135 -190 89 -182 l 54 -96 b 150 -111 87 -105 123 -111 b 168 -110 156 -111 163 -111 b 283 71 251 -108 283 -71 l 283 203 b 361 417 283 322 309 388 b 283 638 308 444 283 512 l 283 768 b 168 948 283 909 251 946 b 150 949 163 949 157 949 b 54 934 123 949 87 943 "},"[":{"ha":400,"x_min":0,"x_max":0,"o":"m 194 967 l 194 -117 l 383 -117 l 383 -192 l 108 -192 l 108 1042 l 383 1042 l 383 967 "},"]":{"ha":399,"x_min":0,"x_max":0,"o":"m 17 -192 l 17 -117 l 206 -117 l 206 967 l 17 967 l 17 1042 l 292 1042 l 292 -192 "},"(":{"ha":351,"x_min":0,"x_max":0,"o":"m 285 1002 b 161 399 184 810 161 599 b 285 -175 161 207 185 12 l 206 -212 b 70 399 98 -11 70 196 b 206 1040 70 610 94 834 "},")":{"ha":351,"x_min":0,"x_max":0,"o":"m 146 1040 b 282 400 258 834 282 611 b 146 -213 282 196 255 -11 l 67 -175 b 191 400 167 12 191 208 b 67 1003 191 599 169 811 "},"—":{"ha":969,"x_min":0,"x_max":0,"o":"m 108 337 l 108 412 l 862 412 l 862 337 "},"–":{"ha":754,"x_min":0,"x_max":0,"o":"m 108 337 l 108 412 l 647 412 l 647 337 "},"-":{"ha":596,"x_min":0,"x_max":0,"o":"m 108 392 l 108 467 l 489 467 l 489 392 "},"«":{"ha":767,"x_min":0,"x_max":0,"o":"m 421 324 l 667 99 l 667 -3 l 339 302 l 339 347 l 667 651 l 667 549 m 147 324 l 392 99 l 392 -3 l 64 302 l 64 347 l 392 651 l 392 549 "},"»":{"ha":768,"x_min":0,"x_max":0,"o":"m 430 302 l 102 -3 l 102 99 l 347 324 l 102 549 l 102 651 l 430 347 m 704 302 l 376 -3 l 376 99 l 621 324 l 376 549 l 376 651 l 704 347 "},"‹":{"ha":458,"x_min":0,"x_max":0,"o":"m 120 324 l 366 99 l 366 -3 l 38 302 l 38 347 l 366 651 l 366 549 "},"›":{"ha":463,"x_min":0,"x_max":0,"o":"m 425 302 l 97 -3 l 97 99 l 341 324 l 97 549 l 97 651 l 425 347 "},"„":{"ha":488,"x_min":0,"x_max":0,"o":"m 216 -7 b 97 -107 216 -69 158 -110 l 97 -42 b 126 -7 114 -37 126 -26 l 126 99 l 216 99 m 387 -7 b 268 -107 387 -69 329 -110 l 268 -42 b 298 -7 285 -37 298 -26 l 298 99 l 388 99 "},"“":{"ha":486,"x_min":0,"x_max":0,"o":"m 223 977 b 194 943 206 973 194 962 l 194 837 l 104 837 l 104 943 b 223 1042 104 1006 162 1045 m 395 977 b 365 943 378 973 365 962 l 365 837 l 275 837 l 275 943 b 395 1042 275 1006 333 1045 "},"”":{"ha":488,"x_min":0,"x_max":0,"o":"m 216 936 b 97 837 216 873 158 833 l 97 901 b 126 936 114 905 126 916 l 126 1042 l 216 1042 m 387 936 b 268 837 387 873 329 833 l 268 901 b 298 936 285 905 298 916 l 298 1042 l 388 1042 "},"‘":{"ha":281,"x_min":0,"x_max":0,"o":"m 215 977 b 185 942 198 973 185 962 l 185 837 l 96 837 l 96 942 b 215 1042 96 1005 154 1045 "},"’":{"ha":282,"x_min":0,"x_max":0,"o":"m 194 936 b 75 837 194 873 136 833 l 75 902 b 104 936 92 905 104 916 l 104 1042 l 194 1042 "},"‚":{"ha":282,"x_min":0,"x_max":0,"o":"m 194 -7 b 75 -107 194 -69 136 -110 l 75 -42 b 104 -7 92 -37 104 -26 l 104 99 l 194 99 "}," ":{"ha":417,"x_min":0,"x_max":0,"o":""},"ƒ":{"ha":496,"x_min":0,"x_max":0,"o":"m 156 740 b 348 993 156 932 214 993 b 468 979 381 993 431 986 l 468 910 b 362 921 434 916 395 923 b 240 739 277 920 240 885 l 240 587 l 442 587 l 442 513 l 240 513 l 240 -136 b 72 -269 240 -218 175 -274 l 72 -206 b 155 -135 127 -207 155 -176 l 155 513 l 66 513 l 66 587 l 156 587 "},"¢":{"ha":686,"x_min":0,"x_max":0,"o":"m 394 714 b 403 714 397 714 400 714 b 427 713 411 714 419 714 b 624 673 445 710 552 706 l 597 602 b 395 643 507 643 415 643 b 168 349 186 643 168 506 b 395 52 168 191 186 52 b 598 93 414 52 507 52 l 625 22 b 425 -19 551 -12 444 -17 b 394 -19 415 -19 403 -21 l 394 -108 l 310 -108 l 310 -14 b 82 349 100 18 82 176 b 310 708 82 519 102 675 l 310 803 l 394 803 "},"$":{"ha":767,"x_min":0,"x_max":0,"o":"m 422 992 b 667 931 497 988 598 972 l 625 862 b 400 917 552 904 465 917 b 173 741 218 917 173 835 b 396 546 173 621 283 583 b 699 248 546 494 699 443 b 422 -22 699 15 551 -17 l 422 -107 l 338 -107 l 338 -21 b 65 32 245 -17 170 -3 l 88 107 b 375 54 211 67 282 54 b 610 248 480 54 610 59 b 369 472 610 390 490 431 b 84 741 231 519 85 571 b 338 989 84 860 137 970 l 338 1080 l 422 1080 "},"€":{"ha":764,"x_min":0,"x_max":0,"o":"m 172 669 b 484 972 178 864 313 972 b 703 887 574 972 651 939 l 660 832 b 484 900 608 879 548 900 b 251 669 364 900 256 818 l 251 630 l 654 630 l 654 570 l 250 570 l 250 406 l 654 406 l 654 346 l 252 346 l 252 285 b 484 49 256 136 363 49 b 659 117 548 49 608 70 l 703 63 b 484 -22 651 10 574 -22 b 171 285 312 -22 178 90 l 171 346 l 67 346 l 67 406 l 169 406 l 169 570 l 67 570 l 67 630 l 172 630 "},"£":{"ha":763,"x_min":0,"x_max":0,"o":"m 149 639 b 145 694 146 656 145 674 b 149 755 145 712 146 732 b 421 972 159 871 274 972 b 657 948 524 972 637 952 l 643 869 b 421 894 639 870 508 894 b 231 725 318 894 231 819 b 237 639 231 688 232 667 l 255 546 l 543 546 l 543 468 l 271 468 l 298 348 b 314 223 311 286 314 269 b 247 78 314 149 276 104 l 734 78 l 734 0 l 121 0 l 121 65 b 225 223 150 83 225 129 b 208 339 225 264 222 279 l 180 468 l 81 468 l 81 546 l 166 546 "},"¥":{"ha":928,"x_min":0,"x_max":0,"o":"m 761 610 l 761 535 l 608 535 l 511 374 l 761 374 l 761 299 l 509 299 l 509 0 l 420 0 l 420 299 l 165 299 l 165 374 l 418 374 l 321 535 l 165 535 l 165 610 l 276 610 l 57 972 l 160 972 l 465 467 l 769 972 l 872 972 l 653 610 "},"≈":{"ha":772,"x_min":0,"x_max":0,"o":""},"~":{"ha":813,"x_min":0,"x_max":0,"o":"m 95 357 b 277 548 131 448 171 548 b 386 515 313 548 353 536 l 503 438 b 573 413 527 423 550 413 b 663 531 620 413 644 481 l 722 509 b 571 332 706 443 663 332 b 471 365 540 332 503 343 l 352 446 b 280 468 332 459 306 468 b 155 332 223 468 191 414 "},"÷":{"ha":672,"x_min":0,"x_max":0,"o":"m 292 618 l 292 738 l 382 738 l 382 618 m 38 406 l 38 481 l 634 481 l 634 406 m 292 147 l 292 267 l 382 267 l 382 147 "},"=":{"ha":739,"x_min":0,"x_max":0,"o":"m 71 576 l 71 651 l 668 651 l 668 576 m 71 333 l 71 408 l 668 408 l 668 333 "},">":{"ha":621,"x_min":0,"x_max":0,"o":"m 583 408 l 96 104 l 96 194 l 482 433 l 96 673 l 96 763 l 583 459 "},"≥":{"ha":581,"x_min":0,"x_max":0,"o":"m 544 461 l 57 157 l 57 247 l 444 486 l 57 726 l 57 816 l 544 512 m 57 0 l 57 75 l 544 75 l 544 0 "},"∞":{"ha":1192,"x_min":0,"x_max":0,"o":""},"∫":{"ha":1192,"x_min":0,"x_max":0,"o":""},"<":{"ha":618,"x_min":0,"x_max":0,"o":"m 138 432 l 525 193 l 525 103 l 38 407 l 38 458 l 525 762 l 525 673 "},"≤":{"ha":579,"x_min":0,"x_max":0,"o":"m 137 486 l 524 247 l 524 157 l 37 461 l 37 512 l 524 816 l 524 726 m 37 0 l 37 75 l 524 75 l 524 0 "},"¬":{"ha":1192,"x_min":0,"x_max":0,"o":""},"−":{"ha":813,"x_min":0,"x_max":0,"o":"m 108 392 l 108 467 l 704 467 l 704 392 "},"×":{"ha":675,"x_min":0,"x_max":0,"o":"m 394 428 l 575 247 l 519 191 l 338 372 l 157 192 l 101 248 l 282 428 l 101 610 l 157 665 l 338 485 l 519 666 l 575 610 "},"≠":{"ha":688,"x_min":0,"x_max":0,"o":"m 642 645 l 642 573 l 424 573 l 350 408 l 642 408 l 642 337 l 318 337 l 168 0 l 80 0 l 230 337 l 48 337 l 48 408 l 262 408 l 335 573 l 48 573 l 48 645 l 367 645 l 511 969 l 600 969 l 456 645 "},"∂":{"ha":1192,"x_min":0,"x_max":0,"o":""},"%":{"ha":1151,"x_min":0,"x_max":0,"o":"m 233 0 l 838 972 l 919 972 l 313 0 m 89 780 b 259 946 89 886 170 946 b 429 780 348 946 429 886 l 429 595 b 259 426 429 489 350 426 b 89 595 169 426 89 489 m 362 780 b 259 881 362 844 314 881 b 157 780 205 881 157 844 l 157 595 b 259 492 157 531 204 492 b 362 595 315 492 362 531 m 722 380 b 892 546 722 486 803 546 b 1062 380 981 546 1062 486 l 1062 195 b 892 26 1062 89 983 26 b 722 195 802 26 722 89 m 995 380 b 892 480 995 444 947 480 b 790 380 838 480 790 444 l 790 195 b 892 92 790 131 837 92 b 995 195 948 92 995 131 "},"‰":{"ha":1560,"x_min":0,"x_max":0,"o":"m 238 0 l 843 972 l 924 972 l 319 0 m 94 780 b 264 946 94 886 176 946 b 435 780 353 946 435 886 l 435 595 b 264 426 435 489 355 426 b 94 595 174 426 94 489 m 367 780 b 264 881 367 844 319 881 b 162 780 210 881 162 844 l 162 595 b 264 492 162 531 209 492 b 367 595 321 492 367 531 m 728 380 b 898 546 728 486 809 546 b 1068 380 987 546 1068 486 l 1068 195 b 898 26 1068 89 988 26 b 728 195 807 26 728 89 m 1144 380 b 1314 546 1144 486 1225 546 b 1484 380 1403 546 1484 486 l 1484 195 b 1314 26 1484 89 1405 26 b 1144 195 1224 26 1144 89 m 1001 380 b 898 480 1001 444 953 480 b 795 380 843 480 795 444 l 795 195 b 898 92 795 131 842 92 b 1001 195 954 92 1001 131 m 1417 380 b 1314 480 1417 444 1369 480 b 1212 380 1260 480 1212 444 l 1212 195 b 1314 92 1212 131 1259 92 b 1417 195 1370 92 1417 131 "},"+":{"ha":675,"x_min":0,"x_max":0,"o":"m 636 467 l 636 392 l 380 392 l 380 135 l 295 135 l 295 392 l 40 392 l 40 467 l 295 467 l 295 722 l 380 722 l 380 467 "},"±":{"ha":1192,"x_min":0,"x_max":0,"o":""},"∏":{"ha":1192,"x_min":0,"x_max":0,"o":""},"√":{"ha":1192,"x_min":0,"x_max":0,"o":""},"∑":{"ha":1192,"x_min":0,"x_max":0,"o":""},"◊":{"ha":1192,"x_min":0,"x_max":0,"o":""},"&":{"ha":869,"x_min":0,"x_max":0,"o":"m 207 670 b 168 790 184 705 168 744 b 411 981 168 928 291 981 b 653 790 531 981 653 928 b 511 589 653 693 601 636 l 407 537 l 669 172 b 708 311 694 206 708 250 l 785 311 b 724 95 785 197 764 142 l 779 20 l 713 -29 l 653 52 b 427 -7 602 11 529 -7 b 88 279 229 -7 88 83 b 217 528 88 379 121 475 l 285 563 m 466 653 b 566 790 526 683 566 722 b 411 908 566 878 491 908 b 256 790 331 908 256 878 b 280 711 256 760 268 731 l 359 600 m 262 458 b 176 279 198 423 176 352 b 425 70 176 133 277 70 b 600 124 498 70 559 87 l 333 496 "},"":{"ha":35,"x_min":0,"x_max":0,"o":""},"^":{"ha":796,"x_min":0,"x_max":0,"o":"m 632 497 l 399 875 l 164 497 l 69 497 l 367 974 l 429 974 l 727 497 "},"@":{"ha":853,"x_min":0,"x_max":0,"o":"m 99 548 b 438 860 99 746 261 860 b 777 548 618 860 777 746 l 777 375 b 612 152 777 207 725 154 l 551 152 l 548 178 b 389 141 504 154 433 141 b 246 276 264 141 246 221 b 434 419 246 407 330 419 b 546 409 467 419 514 415 l 546 456 b 437 559 546 536 500 559 b 291 528 397 559 337 547 l 275 575 b 438 609 325 597 391 609 b 607 453 533 609 607 571 l 607 204 b 714 375 685 206 714 244 l 714 548 b 438 800 714 709 585 800 b 161 548 292 800 161 709 l 161 188 b 438 -68 161 28 291 -68 b 574 -36 487 -68 534 -57 l 597 -94 b 438 -129 548 -117 493 -129 b 99 188 259 -129 99 -8 m 544 362 b 433 373 513 367 466 373 b 303 276 357 373 303 366 b 398 195 303 240 316 195 b 544 230 439 195 506 207 "},"|":{"ha":292,"x_min":0,"x_max":0,"o":"m 108 -244 l 108 972 l 193 972 l 193 -244 "},"¦":{"ha":292,"x_min":0,"x_max":0,"o":"m 108 444 l 108 972 l 193 972 l 193 444 m 108 -244 l 108 284 l 193 284 l 193 -244 "},"©":{"ha":1040,"x_min":0,"x_max":0,"o":"m 520 920 b 950 490 757 920 950 728 b 520 60 950 253 757 60 b 90 490 283 60 90 253 b 520 920 90 728 283 920 m 520 855 b 156 490 318 855 156 693 b 520 126 156 288 318 126 b 885 490 722 126 885 288 b 520 855 885 693 722 855 m 664 256 b 518 221 607 221 524 221 b 326 490 342 221 326 354 b 518 757 326 626 342 757 b 664 722 524 757 607 757 l 641 667 b 518 699 592 699 523 699 b 386 491 395 699 386 606 b 518 281 386 375 395 281 b 641 312 523 281 592 281 "},"†":{"ha":460,"x_min":0,"x_max":0,"o":"m 421 694 l 421 620 l 270 620 l 270 -235 l 185 -235 l 185 620 l 40 620 l 40 694 l 185 694 l 185 953 l 270 953 l 270 694 "},"‡":{"ha":463,"x_min":0,"x_max":0,"o":"m 423 694 l 423 620 l 271 620 l 271 99 l 423 99 l 423 24 l 271 24 l 271 -235 l 186 -235 l 186 24 l 41 24 l 41 99 l 186 99 l 186 620 l 41 620 l 41 694 l 186 694 l 186 953 l 271 953 l 271 694 "},"°":{"ha":569,"x_min":0,"x_max":0,"o":"m 92 790 b 285 978 92 910 184 978 b 477 790 385 978 477 910 l 477 779 b 285 587 477 659 387 587 b 92 779 183 587 92 659 m 410 790 b 285 912 410 868 350 912 b 160 790 219 912 160 868 l 160 779 b 285 653 160 701 218 653 b 410 779 351 653 410 701 "},"¶":{"ha":760,"x_min":0,"x_max":0,"o":"m 616 897 l 616 -228 l 532 -228 l 532 897 l 408 897 l 408 -228 l 323 -228 l 323 443 l 233 443 b 67 616 140 443 67 511 l 67 801 b 244 972 67 908 148 972 l 670 972 l 670 897 "},"®":{"ha":1040,"x_min":0,"x_max":0,"o":"m 520 920 b 950 490 757 920 950 728 b 520 60 950 253 757 60 b 90 490 283 60 90 253 b 520 920 90 728 283 920 m 520 855 b 156 490 318 855 156 692 b 520 126 156 289 318 126 b 885 490 722 126 885 289 b 520 855 885 692 722 855 m 547 735 b 693 584 649 735 693 671 b 584 441 693 509 664 452 l 708 248 l 639 248 l 522 434 l 408 434 l 408 248 l 351 248 l 351 735 m 408 490 l 547 490 b 635 584 609 490 635 530 b 547 678 635 639 609 678 l 408 678 "},"§":{"ha":696,"x_min":0,"x_max":0,"o":"m 90 -54 b 339 -98 197 -85 260 -98 b 536 33 427 -98 536 -85 b 323 188 536 148 433 155 b 87 382 216 220 87 243 b 187 528 87 440 108 496 b 87 669 130 555 87 592 b 359 855 87 764 142 855 b 592 813 424 855 521 845 l 565 742 b 353 784 498 772 410 784 b 172 672 206 784 172 731 b 359 543 172 595 242 576 b 621 321 474 510 621 486 b 552 175 621 249 593 205 b 621 33 594 145 621 102 b 339 -172 621 -151 458 -172 b 70 -126 248 -172 179 -157 m 287 491 b 169 383 195 478 169 433 b 344 255 169 306 236 286 b 472 213 384 243 434 231 b 537 324 510 232 537 265 b 337 477 537 438 437 448 "},"™":{"ha":1186,"x_min":0,"x_max":0,"o":"m 318 912 l 318 408 l 248 408 l 248 912 l 82 912 l 82 972 l 482 972 l 482 912 m 1010 408 l 995 825 l 834 525 l 789 525 l 630 822 l 615 408 l 545 408 l 564 972 l 629 972 l 812 627 l 997 972 l 1062 972 l 1080 408 "},"´":{"ha":308,"x_min":0,"x_max":0,"o":"m 65 912 l 168 1042 l 263 1042 l 133 912 "},"˘":{"ha":558,"x_min":0,"x_max":0,"o":"m 467 1042 b 294 871 467 936 387 871 l 266 871 b 94 1042 173 871 94 936 l 158 1042 b 266 931 158 977 210 931 l 294 931 b 402 1042 350 931 402 977 "},"ˇ":{"ha":419,"x_min":0,"x_max":0,"o":"m 179 912 l 76 1042 l 141 1042 l 210 972 l 279 1042 l 344 1042 l 241 912 "},"¸":{"ha":411,"x_min":0,"x_max":0,"o":"m 227 -60 b 333 -154 312 -60 333 -108 b 76 -274 333 -268 275 -274 l 76 -228 b 274 -154 237 -228 274 -226 b 203 -103 274 -126 261 -103 l 147 -103 l 147 3 l 195 3 l 195 -60 "},"ˆ":{"ha":429,"x_min":0,"x_max":0,"o":"m 283 912 l 214 981 l 145 912 l 81 912 l 184 1042 l 245 1042 l 348 912 "},"¨":{"ha":476,"x_min":0,"x_max":0,"o":"m 113 933 l 113 1007 l 188 1007 l 188 933 m 289 933 l 289 1007 l 364 1007 l 364 933 "},"˙":{"ha":293,"x_min":0,"x_max":0,"o":"m 113 932 l 113 1007 l 188 1007 l 188 932 "},"`":{"ha":310,"x_min":0,"x_max":0,"o":"m 176 912 l 46 1042 l 141 1042 l 244 912 "},"˝":{"ha":554,"x_min":0,"x_max":0,"o":"m 88 912 l 191 1042 l 287 1042 l 157 912 m 279 912 l 381 1042 l 477 1042 l 347 912 "},"¯":{"ha":632,"x_min":0,"x_max":0,"o":"m 113 933 l 113 1007 l 520 1007 l 520 933 "},"˛":{"ha":400,"x_min":0,"x_max":0,"o":"m 230 -33 b 147 -86 160 -33 147 -51 b 343 -224 147 -186 180 -224 l 343 -274 b 95 -93 137 -274 95 -224 b 230 0 95 -26 121 0 "},"˚":{"ha":461,"x_min":0,"x_max":0,"o":"m 230 1063 b 368 925 307 1063 368 1001 b 230 789 368 849 307 789 b 94 925 154 789 94 849 b 230 1063 94 1001 154 1063 m 230 1005 b 151 925 187 1005 151 969 b 230 846 151 881 187 846 b 310 925 275 846 310 881 b 230 1005 310 969 275 1005 "},"˜":{"ha":560,"x_min":0,"x_max":0,"o":"m 95 925 b 199 1043 116 984 141 1043 b 252 1026 219 1043 237 1035 l 318 983 b 357 970 330 975 344 970 b 407 1034 385 970 402 1011 l 467 1021 b 371 903 459 982 427 903 b 313 920 351 903 330 910 l 245 964 b 210 976 236 970 222 976 b 153 906 183 976 168 945 "},"̭":{"ha":0,"x_min":0,"x_max":0,"o":"m 284 -236 l 215 -167 l 146 -236 l 82 -236 l 184 -106 l 246 -106 l 349 -236 "},"̦":{"ha":0,"x_min":0,"x_max":0,"o":"m 174 -214 b 75 -299 174 -267 126 -301 l 75 -244 b 103 -214 90 -242 103 -232 l 103 -117 l 174 -117 "},"̣":{"ha":0,"x_min":0,"x_max":0,"o":"m 108 -236 l 108 -161 l 183 -161 l 183 -236 "},"̱":{"ha":0,"x_min":0,"x_max":0,"o":"m 113 -236 l 113 -162 l 520 -162 l 520 -236 "}}}
